<?xml version="1.0" encoding="UTF-8" standalone="no"?>
<!DOCTYPE svg PUBLIC "-//W3C//DTD SVG 1.1//EN" "http://www.w3.org/Graphics/SVG/1.1/DTD/svg11.dtd">
<svg width="100%" height="100%" viewBox="0 0 1679 1674" version="1.1" xmlns="http://www.w3.org/2000/svg" xmlns:xlink="http://www.w3.org/1999/xlink" xml:space="preserve" xmlns:serif="http://www.serif.com/" style="fill-rule:evenodd;clip-rule:evenodd;stroke-linecap:round;stroke-linejoin:round;stroke-miterlimit:2;">
    <g transform="matrix(6.12876,0,0,6.12876,-24130.1,-5028.13)">
        <path d="M4167.34,849.322C4174.93,849.322 4181.09,855.472 4181.09,863.066L4181.09,1049.58C4181.09,1057.16 4174.93,1063.31 4167.34,1063.31L3980.83,1063.31C3973.25,1063.31 3967.09,1057.16 3967.09,1049.58L3967.09,863.066C3967.09,855.472 3973.25,849.322 3980.83,849.322L4167.34,849.322Z" style="fill:none;stroke:white;stroke-width:7.48px;"/>
    </g>
    <g transform="matrix(0.886462,0,0,0.886462,-74964.5,-3278.17)">
        <path d="M85011.5,4903.08L86013.4,4903.08" style="fill:none;stroke:white;stroke-width:51.7px;stroke-linejoin:miter;stroke-miterlimit:8;"/>
    </g>
    <g transform="matrix(5.42801e-17,0.392241,-0.886462,2.40179e-17,4741.36,-32263.1)">
        <path d="M84976.5,4903.08L86048.4,4903.08" style="fill:none;stroke:white;stroke-width:66.87px;stroke-linejoin:miter;stroke-miterlimit:8;"/>
    </g>
    <g transform="matrix(5.42801e-17,0.392241,-0.886462,2.40179e-17,4963.41,-32263.1)">
        <path d="M84976.5,4903.08L86048.4,4903.08" style="fill:none;stroke:white;stroke-width:66.87px;stroke-linejoin:miter;stroke-miterlimit:8;"/>
    </g>
    <g transform="matrix(5.42801e-17,0.392241,-0.886462,2.40179e-17,5185.45,-32263.1)">
        <path d="M82724.2,4903.08L86048.4,4903.08" style="fill:none;stroke:white;stroke-width:66.87px;stroke-linejoin:miter;stroke-miterlimit:8;"/>
    </g>
    <g transform="matrix(5.42801e-17,0.392241,-0.886462,2.40179e-17,5407.49,-32263.1)">
        <path d="M84976.5,4903.08L86048.4,4903.08" style="fill:none;stroke:white;stroke-width:66.87px;stroke-linejoin:miter;stroke-miterlimit:8;"/>
    </g>
    <g transform="matrix(5.42801e-17,0.392241,-0.886462,2.40179e-17,5629.54,-32263.1)">
        <path d="M84976.5,4903.08L86048.4,4903.08" style="fill:none;stroke:white;stroke-width:66.87px;stroke-linejoin:miter;stroke-miterlimit:8;"/>
    </g>
    <g transform="matrix(0.196121,0.196121,-0.626823,0.626823,-12309.2,-18670.8)">
        <path d="M84976.5,4903.08L85732,4804.09" style="fill:none;stroke:white;stroke-width:69.78px;stroke-linejoin:miter;stroke-miterlimit:8;"/>
    </g>
    <g transform="matrix(-0.196121,0.196121,0.626823,0.626823,13987.3,-18670.8)">
        <path d="M84976.5,4903.08L85732,4804.09" style="fill:none;stroke:white;stroke-width:69.78px;stroke-linejoin:miter;stroke-miterlimit:8;"/>
    </g>
</svg>
