<?xml version="1.0" encoding="UTF-8" standalone="no"?>
<!DOCTYPE svg PUBLIC "-//W3C//DTD SVG 1.1//EN" "http://www.w3.org/Graphics/SVG/1.1/DTD/svg11.dtd">
<svg width="100%" height="100%" viewBox="0 0 1399 1058" version="1.1" xmlns="http://www.w3.org/2000/svg" xmlns:xlink="http://www.w3.org/1999/xlink" xml:space="preserve" xmlns:serif="http://www.serif.com/" style="fill-rule:evenodd;clip-rule:evenodd;stroke-linecap:round;stroke-linejoin:round;stroke-miterlimit:2;">
    <g transform="matrix(5.71604,0,0,5.71604,-2361.15,-5043.64)">
        <path d="M428.648,1007.66L428.648,991.392C428.648,979.715 438.115,970.249 449.792,970.249L621.098,970.249C632.775,970.249 642.241,979.715 642.241,991.392L642.241,1007.66" style="fill:none;stroke:white;stroke-width:8.02px;"/>
    </g>
    <g transform="matrix(5.71604,0,0,5.71604,-2361.15,-5043.64)">
        <path d="M454.704,1046.63L451.016,1063.31L432.222,1063.31L432.222,1046.63" style="fill:none;stroke:white;stroke-width:8.02px;"/>
    </g>
    <g transform="matrix(5.71604,0,0,5.71604,-2361.15,-5043.64)">
        <path d="M616.186,1047.03L619.874,1063.31L638.667,1063.31L638.667,1047.03" style="fill:none;stroke:white;stroke-width:8.02px;"/>
    </g>
    <g transform="matrix(5.71604,0,0,5.71604,-2361.15,-5043.64)">
        <path d="M442.753,971.474L442.753,899.925C442.753,892.441 450.796,886.375 460.718,886.375L610.173,886.375C620.095,886.375 628.138,892.441 628.138,899.925L628.138,971.474" style="fill:none;stroke:white;stroke-width:8.02px;"/>
    </g>
    <g transform="matrix(5.71604,0,0,5.71604,-2361.15,-5043.64)">
        <path d="M454.9,957.441L454.9,942.354C454.9,935.754 460.251,930.403 466.852,930.403L515.136,930.403C521.736,930.403 527.087,935.754 527.087,942.354L527.087,957.441" style="fill:none;stroke:white;stroke-width:8.02px;"/>
    </g>
    <g transform="matrix(5.71604,0,0,5.71604,-2361.15,-5043.64)">
        <path d="M543.804,957.441L543.804,942.354C543.804,935.754 549.155,930.403 555.755,930.403L604.039,930.403C610.64,930.403 615.99,935.754 615.99,942.354L615.99,957.441" style="fill:none;stroke:white;stroke-width:8.02px;"/>
    </g>
    <g transform="matrix(5.71604,0,0,5.71604,-2361.15,-5043.64)">
        <rect x="417.084" y="1019.25" width="236.721" height="18.68" style="fill:none;stroke:white;stroke-width:8.02px;"/>
    </g>
</svg>
