<?xml version="1.0" encoding="UTF-8" standalone="no"?>
<!DOCTYPE svg PUBLIC "-//W3C//DTD SVG 1.1//EN" "http://www.w3.org/Graphics/SVG/1.1/DTD/svg11.dtd">
<svg width="100%" height="100%" viewBox="0 0 1376 1323" version="1.1" xmlns="http://www.w3.org/2000/svg" xmlns:xlink="http://www.w3.org/1999/xlink" xml:space="preserve" xmlns:serif="http://www.serif.com/" style="fill-rule:evenodd;clip-rule:evenodd;stroke-linecap:round;stroke-linejoin:round;stroke-miterlimit:2;">
    <g transform="matrix(5.77414,0,0,5.77414,-360.527,-4840.5)">
        <path d="M66.407,872.565C80.237,872.565 89.269,876.829 103.099,876.829C116.929,876.829 116.929,872.565 130.759,872.565C144.591,872.565 144.591,876.829 158.423,876.829C172.255,876.829 172.255,872.565 186.087,872.565C199.918,872.565 199.918,876.829 213.75,876.829C227.583,876.829 227.583,872.565 241.416,872.565C255.25,872.565 255.25,876.829 269.084,876.829C282.918,876.829 282.918,872.565 296.753,872.565" style="fill:none;stroke:white;stroke-width:7.94px;"/>
    </g>
    <g transform="matrix(5.77414,0,0,5.77414,-360.527,-4840.5)">
        <path d="M106.769,963.984C132.044,943.707 150.186,915.646 158.191,883.917L159.438,878.959" style="fill:none;stroke:white;stroke-width:7.94px;"/>
    </g>
    <g transform="matrix(5.77414,0,0,5.77414,-360.527,-4840.5)">
        <path d="M96.58,990.101L101.229,993.748C115.088,1004.58 127.786,1030.41 134.555,1046.02C137.444,1052.67 133.809,1060.34 126.837,1062.32C124.523,1062.98 122.135,1063.31 119.758,1063.31C116.986,1063.31 114.214,1062.86 111.549,1061.97L100.024,1058.11C95.184,1056.48 89.981,1056.33 85.044,1057.67L83.041,1058.22C77.528,1059.71 71.676,1059.33 66.409,1057.15" style="fill:none;stroke:white;stroke-width:7.94px;"/>
    </g>
    <g transform="matrix(5.77414,0,0,5.77414,-360.527,-4840.5)">
        <path d="M202.872,876.829L204.119,883.917C213.181,919.855 235.26,951.093 265.975,971.637" style="fill:none;stroke:white;stroke-width:7.94px;"/>
    </g>
    <g transform="matrix(5.77414,0,0,5.77414,-360.527,-4840.5)">
        <path d="M256.342,998.053C244.374,1010.4 233.744,1032.21 227.755,1046.02C224.866,1052.67 228.501,1060.34 235.473,1062.32C237.787,1062.98 240.175,1063.31 242.552,1063.31C245.324,1063.31 248.096,1062.86 250.761,1061.97L262.286,1058.11C267.126,1056.48 272.329,1056.33 277.265,1057.67L279.269,1058.22C284.781,1059.71 290.634,1059.33 295.9,1057.15" style="fill:none;stroke:white;stroke-width:7.94px;"/>
    </g>
    <g transform="matrix(5.77414,0,0,5.77414,-360.527,-4840.5)">
        <path d="M66.407,1057.15L66.407,842.276L296.753,842.276L296.753,1057.68" style="fill:none;stroke:white;stroke-width:7.94px;"/>
    </g>
    <g transform="matrix(5.77414,0,0,5.77414,-360.527,-4840.5)">
        <path d="M67.398,973.307L94.267,973.307C98.993,973.307 102.825,977.138 102.825,981.864C102.825,986.59 98.993,990.422 94.267,990.422L67.63,990.422" style="fill:none;stroke:white;stroke-width:7.94px;"/>
    </g>
    <g transform="matrix(5.77414,0,0,5.77414,-360.527,-4840.5)">
        <path d="M295.485,988.246L268.854,988.246C268.608,988.246 268.374,988.236 268.139,988.215C266.06,988.044 264.184,987.127 262.798,985.741C261.252,984.195 260.292,982.063 260.292,979.696C260.292,975.975 262.659,972.809 265.975,971.637C266.87,971.306 267.84,971.136 268.854,971.136L295.719,971.136" style="fill:none;stroke:white;stroke-width:7.94px;"/>
    </g>
    <g transform="matrix(5.77414,0,0,5.77414,-360.527,-4840.5)">
        <path d="M230.342,890.773C232.372,898.663 235.766,907.694 241.329,913.487" style="fill:none;stroke:white;stroke-width:7.94px;"/>
    </g>
    <g transform="matrix(5.77414,0,0,5.77414,-360.527,-4840.5)">
        <path d="M256.344,875.763C256.344,875.763 257.367,888.784 262,900.784" style="fill:none;stroke:white;stroke-width:7.94px;"/>
    </g>
    <g transform="matrix(5.77414,0,0,5.77414,-360.527,-4840.5)">
        <path d="M131.918,886.909C129.998,895.371 126.489,905.93 120.255,912.421" style="fill:none;stroke:white;stroke-width:7.94px;"/>
    </g>
    <g transform="matrix(5.77414,0,0,5.77414,-360.527,-4840.5)">
        <path d="M102.412,878.262C102.412,878.262 101.389,891.282 96.756,903.283" style="fill:none;stroke:white;stroke-width:7.94px;"/>
    </g>
    <g transform="matrix(5.77414,0,0,5.77414,-360.527,-4840.5)">
        <path d="M278.006,989.739C278.006,989.739 264.207,1008.96 261.329,1019.68" style="fill:none;stroke:white;stroke-width:7.94px;"/>
    </g>
    <g transform="matrix(5.77414,0,0,5.77414,-360.527,-4840.5)">
        <path d="M74.817,990.422C74.817,990.422 84.236,1001.36 85.111,1015.21" style="fill:none;stroke:white;stroke-width:7.94px;"/>
    </g>
</svg>
