<?xml version="1.0" encoding="UTF-8" standalone="no"?>
<!DOCTYPE svg PUBLIC "-//W3C//DTD SVG 1.1//EN" "http://www.w3.org/Graphics/SVG/1.1/DTD/svg11.dtd">
<svg width="100%" height="100%" viewBox="0 0 1526 1526" version="1.1" xmlns="http://www.w3.org/2000/svg" xmlns:xlink="http://www.w3.org/1999/xlink" xml:space="preserve" xmlns:serif="http://www.serif.com/" style="fill-rule:evenodd;clip-rule:evenodd;stroke-linecap:round;stroke-linejoin:round;stroke-miterlimit:2;">
    <g transform="matrix(6.91373,0,0,6.91373,-27404.5,-5849.07)">
        <path d="M4167.34,849.322C4174.93,849.322 4181.09,855.472 4181.09,863.066L4181.09,1049.58C4181.09,1057.16 4174.93,1063.31 4167.34,1063.31L3980.83,1063.31C3973.25,1063.31 3967.09,1057.16 3967.09,1049.58L3967.09,863.066C3967.09,855.472 3973.25,849.322 3980.83,849.322L4167.34,849.322Z" style="fill:none;stroke:white;stroke-width:6.63px;"/>
    </g>
    <g transform="matrix(6.91373,0,0,6.91373,-27404.5,-5849.07)">
        <rect x="4019.91" y="908.015" width="108.36" height="98.615" style="fill:none;stroke:white;stroke-width:6.63px;"/>
    </g>
    <g transform="matrix(6.91373,0,0,6.91373,-27404.5,-5849.07)">
        <path d="M4074.09,908.152L4074.09,1004.48" style="fill:none;stroke:white;stroke-width:6.63px;"/>
    </g>
    <g transform="matrix(6.91373,0,0,6.91373,-27404.5,-6091.03)">
        <path d="M4095.36,992.32L4106.88,992.32" style="fill:none;stroke:white;stroke-width:6.63px;"/>
    </g>
    <g transform="matrix(6.91373,0,0,6.91373,-27404.5,-6091.03)">
        <path d="M4041.31,992.32L4052.83,992.32" style="fill:none;stroke:white;stroke-width:6.63px;"/>
    </g>
</svg>
