<?xml version="1.0" encoding="UTF-8" standalone="no"?>
<!DOCTYPE svg PUBLIC "-//W3C//DTD SVG 1.1//EN" "http://www.w3.org/Graphics/SVG/1.1/DTD/svg11.dtd">
<svg width="100%" height="100%" viewBox="0 0 1218 1429" version="1.1" xmlns="http://www.w3.org/2000/svg" xmlns:xlink="http://www.w3.org/1999/xlink" xml:space="preserve" xmlns:serif="http://www.serif.com/" style="fill-rule:evenodd;clip-rule:evenodd;stroke-linecap:round;stroke-linejoin:round;stroke-miterlimit:2;">
    <g transform="matrix(5.67001,0,0,5.67001,-20485.1,-9242.62)">
        <path d="M3823.51,1853.19L3616.93,1853.19L3616.93,1661.5C3616.93,1657.74 3619.98,1654.69 3623.75,1654.69L3816.71,1654.69C3820.47,1654.69 3823.51,1657.74 3823.51,1661.5L3823.51,1853.19Z" style="fill:none;stroke:white;stroke-width:8.08px;"/>
    </g>
    <g transform="matrix(5.67001,0,0,5.67001,-20485.1,-9242.62)">
        <path d="M3695.44,1644.69L3695.44,1639.34C3695.44,1636.46 3693.1,1634.13 3690.22,1634.13L3647.35,1634.13C3644.47,1634.13 3642.14,1636.46 3642.14,1639.34L3642.14,1644.69" style="fill:none;stroke:white;stroke-width:8.08px;"/>
    </g>
    <g transform="matrix(5.67001,0,0,5.67001,-20485.1,-9242.62)">
        <path d="M3798.31,1644.69L3798.31,1639.34C3798.31,1636.46 3795.98,1634.13 3793.1,1634.13L3750.23,1634.13C3747.35,1634.13 3745.01,1636.46 3745.01,1639.34L3745.01,1644.69" style="fill:none;stroke:white;stroke-width:8.08px;"/>
    </g>
    <g transform="matrix(5.67001,0,0,5.67001,-20485.1,-9242.62)">
        <path d="M3616.93,1700.4L3822.51,1700.4" style="fill:none;stroke:white;stroke-width:8.08px;"/>
    </g>
    <g transform="matrix(5.67001,0,0,5.67001,-20485.1,-9242.62)">
        <path d="M3652.5,1678.54C3652.5,1683.66 3648.35,1687.8 3643.24,1687.8C3638.12,1687.8 3633.98,1683.66 3633.98,1678.54C3633.98,1673.43 3638.12,1669.29 3643.24,1669.29C3648.35,1669.29 3652.5,1673.43 3652.5,1678.54Z" style="fill:none;stroke:white;stroke-width:8.08px;"/>
    </g>
    <g transform="matrix(5.67001,0,0,5.67001,-20485.1,-9242.62)">
        <path d="M3686.33,1678.54C3686.33,1683.66 3682.18,1687.8 3677.07,1687.8C3671.96,1687.8 3667.81,1683.66 3667.81,1678.54C3667.81,1673.43 3671.96,1669.29 3677.07,1669.29C3682.18,1669.29 3686.33,1673.43 3686.33,1678.54Z" style="fill:none;stroke:white;stroke-width:8.08px;"/>
    </g>
    <g transform="matrix(5.67001,0,0,5.67001,-20485.1,-9242.62)">
        <path d="M3769.64,1678.54C3769.64,1683.66 3765.5,1687.8 3760.39,1687.8C3755.27,1687.8 3751.13,1683.66 3751.13,1678.54C3751.13,1673.43 3755.27,1669.29 3760.39,1669.29C3765.5,1669.29 3769.64,1673.43 3769.64,1678.54Z" style="fill:none;stroke:white;stroke-width:8.08px;"/>
    </g>
    <g transform="matrix(5.67001,0,0,5.67001,-20485.1,-9242.62)">
        <path d="M3803.47,1678.54C3803.47,1683.66 3799.33,1687.8 3794.22,1687.8C3789.1,1687.8 3784.96,1683.66 3784.96,1678.54C3784.96,1673.43 3789.1,1669.29 3794.22,1669.29C3799.33,1669.29 3803.47,1673.43 3803.47,1678.54Z" style="fill:none;stroke:white;stroke-width:8.08px;"/>
    </g>
    <g transform="matrix(5.67001,0,0,5.67001,-20485.1,-9242.62)">
        <rect x="3639.45" y="1725.93" width="161.55" height="90.9" style="fill:none;stroke:white;stroke-width:8.08px;"/>
    </g>
    <g transform="matrix(5.67001,0,0,5.67001,-20485.1,-9242.62)">
        <path d="M3810.5,1863.19L3810.5,1872.8C3810.5,1875.7 3808.15,1878.06 3805.24,1878.06L3635.21,1878.06C3632.3,1878.06 3629.95,1875.7 3629.95,1872.8L3629.95,1863.19" style="fill:none;stroke:white;stroke-width:8.08px;"/>
    </g>
    <g transform="matrix(5.67001,0,0,5.67001,-20485.1,-9242.62)">
        <path d="M3675.93,1747.52L3764.52,1747.52" style="fill:none;stroke:white;stroke-width:8.08px;"/>
    </g>
    <g transform="matrix(5.67001,0,0,5.67001,-20485.1,-9242.62)">
        <path d="M3675.93,1747.52L3675.93,1741.61" style="fill:none;stroke:white;stroke-width:8.08px;"/>
    </g>
    <g transform="matrix(5.67001,0,0,5.67001,-20485.1,-9242.62)">
        <path d="M3764.52,1747.52L3764.52,1741.61" style="fill:none;stroke:white;stroke-width:8.08px;"/>
    </g>
</svg>
