<?xml version="1.0" encoding="UTF-8" standalone="no"?>
<!DOCTYPE svg PUBLIC "-//W3C//DTD SVG 1.1//EN" "http://www.w3.org/Graphics/SVG/1.1/DTD/svg11.dtd">
<svg width="100%" height="100%" viewBox="0 0 1677 1123" version="1.1" xmlns="http://www.w3.org/2000/svg" xmlns:xlink="http://www.w3.org/1999/xlink" xml:space="preserve" xmlns:serif="http://www.serif.com/" style="fill-rule:evenodd;clip-rule:evenodd;stroke-linecap:round;stroke-linejoin:round;stroke-miterlimit:2;">
    <g transform="matrix(6.99432,0,0,6.99432,-12806.9,-2856.95)">
        <path d="M1982.8,411.744L1982.8,467.041L1918.53,467.041L1918.53,411.744" style="fill:none;stroke:white;stroke-width:6.55px;"/>
    </g>
    <g transform="matrix(6.99432,0,0,6.99432,-12806.9,-2856.95)">
        <path d="M2040.2,520.853L1982.8,467.041" style="fill:none;stroke:white;stroke-width:6.55px;"/>
    </g>
    <g transform="matrix(6.99432,0,0,6.99432,-12806.9,-2856.95)">
        <path d="M1918.53,467.041L1861.53,520.853" style="fill:none;stroke:white;stroke-width:6.55px;"/>
    </g>
    <g transform="matrix(6.99432,0,0,6.99432,-12806.9,-2856.95)">
        <path d="M1839.76,565.647L2062.04,565.647C2065.05,565.647 2067.48,563.21 2067.48,560.204L2067.48,537.229C2067.48,534.223 2065.05,531.787 2062.04,531.787L1839.76,531.787C1836.76,531.787 1834.32,534.223 1834.32,537.229L1834.32,560.204C1834.32,563.21 1836.76,565.647 1839.76,565.647Z" style="fill:none;stroke:white;stroke-width:6.55px;"/>
    </g>
    <g transform="matrix(6.99432,0,0,6.99432,-12806.9,-2856.95)">
        <path d="M1997.65,548.743L2003.65,548.743" style="fill:none;stroke:white;stroke-width:6.55px;"/>
    </g>
    <g transform="matrix(6.99432,0,0,6.99432,-12806.9,-2856.95)">
        <path d="M2016.98,548.743L2030.31,548.743" style="fill:none;stroke:white;stroke-width:6.55px;"/>
    </g>
    <g transform="matrix(6.99432,0,0,6.99432,-12806.9,-2856.95)">
        <path d="M2043.65,548.743L2049.65,548.743" style="fill:none;stroke:white;stroke-width:6.55px;"/>
    </g>
</svg>
