<?xml version="1.0" encoding="UTF-8" standalone="no"?>
<!DOCTYPE svg PUBLIC "-//W3C//DTD SVG 1.1//EN" "http://www.w3.org/Graphics/SVG/1.1/DTD/svg11.dtd">
<svg width="100%" height="100%" viewBox="0 0 1694 927" version="1.1" xmlns="http://www.w3.org/2000/svg" xmlns:xlink="http://www.w3.org/1999/xlink" xml:space="preserve" xmlns:serif="http://www.serif.com/" style="fill-rule:evenodd;clip-rule:evenodd;stroke-linecap:round;stroke-linejoin:round;stroke-miterlimit:2;">
    <g transform="matrix(6.73027,0,0,6.73027,-21809.7,-11736.4)">
        <path d="M3275.32,1853.39L3457.4,1853.39C3470.96,1853.39 3482.32,1843.16 3483.74,1829.68L3488.77,1782.08C3488.77,1771.32 3480.04,1762.59 3469.28,1762.59L3463.9,1762.59C3459.82,1762.59 3456.44,1765.5 3455.69,1769.35C3455.59,1769.87 3455.53,1770.41 3455.53,1770.96L3448.01,1814.5L3381.41,1814.67L3351.31,1814.67L3284.72,1814.85L3277.19,1770.96C3277.19,1766.34 3273.45,1762.59 3268.83,1762.59L3263.44,1762.59C3252.68,1762.59 3243.95,1771.32 3243.95,1782.08L3248.98,1829.68C3250.4,1843.16 3261.77,1853.39 3275.32,1853.39Z" style="fill:none;stroke:white;stroke-width:6.81px;"/>
    </g>
    <g transform="matrix(6.73027,0,0,6.73027,-21809.7,-11736.4)">
        <path d="M3431.44,1864.75L3436.12,1878.06L3452.09,1878.06L3452.09,1853.39" style="fill:none;stroke:white;stroke-width:6.81px;"/>
    </g>
    <g transform="matrix(6.73027,0,0,6.73027,-21809.7,-11736.4)">
        <path d="M3301.28,1864.75L3296.6,1878.06L3280.63,1878.06L3280.63,1853.39" style="fill:none;stroke:white;stroke-width:6.81px;"/>
    </g>
    <g transform="matrix(6.73027,0,0,6.73027,-21809.7,-11736.4)">
        <path d="M3463.02,1754.64C3463.64,1756.1 3463.98,1757.7 3463.98,1759.37L3463.98,1762.59" style="fill:none;stroke:white;stroke-width:6.81px;"/>
    </g>
    <g transform="matrix(6.73027,0,0,6.73027,-21809.7,-11736.4)">
        <path d="M3269.59,1754.91C3271.37,1750.41 3275.76,1747.23 3280.89,1747.23L3451.83,1747.23C3456.86,1747.23 3461.18,1750.28 3463.02,1754.64" style="fill:none;stroke:white;stroke-width:6.81px;"/>
    </g>
    <g transform="matrix(6.73027,0,0,6.73027,-21809.7,-11736.4)">
        <path d="M3268.74,1762.59L3268.74,1759.37C3268.74,1757.8 3269.04,1756.29 3269.59,1754.91" style="fill:none;stroke:white;stroke-width:6.81px;"/>
    </g>
    <g transform="matrix(6.73027,0,0,6.73027,-21809.7,-11736.4)">
        <path d="M3364.15,1747.23L3364.15,1800.83" style="fill:none;stroke:white;stroke-width:6.81px;"/>
    </g>
</svg>
