<?xml version="1.0" encoding="UTF-8" standalone="no"?>
<!DOCTYPE svg PUBLIC "-//W3C//DTD SVG 1.1//EN" "http://www.w3.org/Graphics/SVG/1.1/DTD/svg11.dtd">
<svg width="100%" height="100%" viewBox="0 0 1359 1266" version="1.1" xmlns="http://www.w3.org/2000/svg" xmlns:xlink="http://www.w3.org/1999/xlink" xml:space="preserve" xmlns:serif="http://www.serif.com/" style="fill-rule:evenodd;clip-rule:evenodd;stroke-linecap:round;stroke-linejoin:round;stroke-miterlimit:2;">
    <g transform="matrix(5.38523,0,0,5.38523,-2204.1,-6640.99)">
        <path d="M480.048,1429.51L432.918,1429.51C430.308,1429.51 428.197,1431.64 428.216,1434.25L428.434,1463.87L506.808,1463.87L656.953,1359.8L657.347,1304.34L600.216,1304.34C597.619,1304.34 595.514,1306.45 595.514,1309.05L595.514,1332.54L595.549,1332.54" style="fill:none;stroke:white;stroke-width:8.51px;"/>
    </g>
    <g transform="matrix(5.38523,0,0,5.38523,-2204.1,-6640.99)">
        <path d="M553.719,1364.91L553.681,1364.91L553.681,1337.24C553.681,1334.64 555.786,1332.54 558.383,1332.54L605.549,1332.54" style="fill:none;stroke:white;stroke-width:8.51px;"/>
    </g>
    <g transform="matrix(5.38523,0,0,5.38523,-2204.1,-6640.99)">
        <path d="M511.85,1397.16L511.848,1396.32L511.848,1369.61C511.848,1367.01 513.953,1364.91 516.55,1364.91L563.719,1364.91" style="fill:none;stroke:white;stroke-width:8.51px;"/>
    </g>
    <g transform="matrix(5.38523,0,0,5.38523,-2204.1,-6640.99)">
        <path d="M470.048,1429.51L470.02,1401.87C470.017,1399.27 472.123,1397.16 474.722,1397.16L521.849,1397.16" style="fill:none;stroke:white;stroke-width:8.51px;"/>
    </g>
    <g transform="matrix(5.38523,0,0,5.38523,-2204.1,-6640.99)">
        <path d="M624.264,1255.44L624.264,1304.34" style="fill:none;stroke:white;stroke-width:8.51px;"/>
    </g>
    <g transform="matrix(5.38523,0,0,5.38523,-2204.1,-6640.99)">
        <path d="M413.542,1383.66L449.878,1383.66L609.224,1254.84C610.343,1253.94 611.737,1253.44 613.176,1253.44L652.086,1253.44L652.086,1237.44L610.773,1237.44C607.228,1237.44 603.791,1238.66 601.034,1240.89L444.22,1367.66L422.678,1367.66C417.633,1367.66 413.542,1371.75 413.542,1376.79L413.542,1383.66Z" style="fill:none;stroke:white;stroke-width:8.51px;"/>
    </g>
    <g transform="matrix(5.38523,0,0,5.38523,-2204.1,-6640.99)">
        <path d="M433.029,1394.43L433.029,1429.51" style="fill:none;stroke:white;stroke-width:8.51px;"/>
    </g>
    <g transform="matrix(5.38523,0,0,5.38523,-2204.1,-6640.99)">
        <path d="M537.784,1312.59L537.784,1364.94" style="fill:none;stroke:white;stroke-width:8.51px;"/>
    </g>
    <g transform="matrix(5.38523,0,0,5.38523,-2204.1,-6640.99)">
        <path d="M521.643,1346.82L521.643,1364.94" style="fill:none;stroke:white;stroke-width:8.51px;"/>
    </g>
    <g transform="matrix(5.38523,0,0,5.38523,-2204.1,-6640.99)">
        <path d="M608.124,1275.31L608.124,1304.34" style="fill:none;stroke:white;stroke-width:8.51px;"/>
    </g>
    <g transform="matrix(5.38523,0,0,5.38523,-2204.1,-6640.99)">
        <path d="M449.878,1383.66L449.878,1429.51" style="fill:none;stroke:white;stroke-width:8.51px;"/>
    </g>
</svg>
