<?xml version="1.0" encoding="UTF-8" standalone="no"?>
<!DOCTYPE svg PUBLIC "-//W3C//DTD SVG 1.1//EN" "http://www.w3.org/Graphics/SVG/1.1/DTD/svg11.dtd">
<svg width="100%" height="100%" viewBox="0 0 26 51" version="1.1" xmlns="http://www.w3.org/2000/svg" xmlns:xlink="http://www.w3.org/1999/xlink" xml:space="preserve" xmlns:serif="http://www.serif.com/" style="fill-rule:evenodd;clip-rule:evenodd;stroke-linejoin:round;stroke-miterlimit:2;">
    <g transform="matrix(1.20765,0,0,1.20765,-1582.57,-181.253)">
        <path d="M1324.78,157.9L1331.29,157.9L1331.29,150.088L1324.78,150.088C1323.53,150.088 1322.35,150.332 1321.24,150.82C1320.13,151.281 1319.16,151.925 1318.33,152.753C1317.5,153.58 1316.86,154.55 1316.4,155.662C1315.91,156.774 1315.66,157.954 1315.66,159.202L1315.66,163.108L1310.46,163.108L1310.46,170.921L1315.66,170.921L1315.66,191.754L1323.48,191.754L1323.48,170.921L1329.99,170.921L1331.29,163.108L1323.48,163.108L1323.48,159.202C1323.48,158.85 1323.61,158.544 1323.86,158.287C1324.12,158.029 1324.43,157.9 1324.78,157.9Z" style="fill:rgb(5,52,81);fill-rule:nonzero;"/>
    </g>
</svg>
