<?xml version="1.0" encoding="UTF-8" standalone="no"?>
<!DOCTYPE svg PUBLIC "-//W3C//DTD SVG 1.1//EN" "http://www.w3.org/Graphics/SVG/1.1/DTD/svg11.dtd">
<svg width="100%" height="100%" viewBox="0 0 44 44" version="1.1" xmlns="http://www.w3.org/2000/svg" xmlns:xlink="http://www.w3.org/1999/xlink" xml:space="preserve" xmlns:serif="http://www.serif.com/" style="fill-rule:evenodd;clip-rule:evenodd;stroke-linejoin:round;stroke-miterlimit:2;">
    <g transform="matrix(1.40343,0,0,1.40343,-40223.5,-34167.8)">
        <path d="M28692,24352.1L28692,24370.9C28692,24374.3 28689.2,24377 28685.8,24377L28667,24377C28663.6,24377 28660.8,24374.3 28660.8,24370.9L28660.8,24352.1C28660.8,24348.6 28663.6,24345.9 28667,24345.9L28685.8,24345.9C28689.2,24345.9 28692,24348.6 28692,24352.1ZM28691.1,24352.1C28691.1,24349.1 28688.7,24346.8 28685.8,24346.8L28667,24346.8C28664.1,24346.8 28661.7,24349.1 28661.7,24352.1L28661.7,24370.9C28661.7,24373.8 28664.1,24376.2 28667,24376.2L28685.8,24376.2C28688.7,24376.2 28691.1,24373.8 28691.1,24370.9L28691.1,24352.1ZM28681.9,24356.6L28670.8,24367.7L28670.1,24367.1L28681.3,24356L28673,24356L28673,24355.1L28682.8,24355.1L28682.8,24364.9L28681.9,24364.9L28681.9,24356.6Z" style="fill:rgb(5,52,81);"/>
    </g>
</svg>
