<?xml version="1.0" encoding="UTF-8" standalone="no"?>
<!DOCTYPE svg PUBLIC "-//W3C//DTD SVG 1.1//EN" "http://www.w3.org/Graphics/SVG/1.1/DTD/svg11.dtd">
<svg width="100%" height="100%" viewBox="0 0 51 51" version="1.1" xmlns="http://www.w3.org/2000/svg" xmlns:xlink="http://www.w3.org/1999/xlink" xml:space="preserve" xmlns:serif="http://www.serif.com/" style="fill-rule:evenodd;clip-rule:evenodd;stroke-linejoin:round;stroke-miterlimit:2;">
    <g transform="matrix(1.20765,0,0,1.20765,-1675.66,-181.253)">
        <path d="M1408.37,153.831C1411.17,153.831 1412.99,153.838 1413.85,153.851C1414.7,153.865 1415.68,153.899 1416.8,153.953C1417.8,154.007 1418.6,154.109 1419.2,154.258C1419.79,154.408 1420.28,154.55 1420.66,154.686C1421.15,154.875 1421.58,155.093 1421.94,155.337C1422.31,155.581 1422.68,155.879 1423.06,156.232C1423.41,156.584 1423.71,156.951 1423.96,157.33C1424.2,157.71 1424.42,158.144 1424.61,158.633C1424.74,158.985 1424.89,159.46 1425.04,160.057C1425.18,160.653 1425.29,161.467 1425.34,162.498C1425.37,163.583 1425.4,164.56 1425.42,165.428C1425.45,166.296 1425.46,168.127 1425.46,170.921C1425.46,173.688 1425.45,175.505 1425.42,176.373C1425.4,177.241 1425.37,178.218 1425.34,179.303C1425.29,180.334 1425.18,181.148 1425.04,181.745C1424.89,182.341 1424.74,182.816 1424.61,183.169C1424.42,183.657 1424.2,184.091 1423.96,184.471C1423.71,184.851 1423.41,185.217 1423.06,185.569C1422.68,185.949 1422.31,186.261 1421.94,186.505C1421.58,186.749 1421.15,186.966 1420.66,187.156C1420.28,187.292 1419.79,187.434 1419.2,187.584C1418.6,187.733 1417.8,187.821 1416.8,187.848C1415.68,187.902 1414.7,187.936 1413.85,187.95C1412.99,187.963 1411.17,187.97 1408.37,187.97C1405.61,187.97 1403.79,187.963 1402.92,187.95C1402.05,187.936 1401.06,187.902 1399.95,187.848C1398.95,187.821 1398.15,187.733 1397.55,187.584C1396.95,187.434 1396.46,187.292 1396.09,187.156C1395.62,186.966 1395.2,186.749 1394.82,186.505C1394.44,186.261 1394.08,185.949 1393.73,185.569C1393.35,185.217 1393.03,184.851 1392.79,184.471C1392.55,184.091 1392.33,183.671 1392.14,183.209C1392,182.83 1391.86,182.341 1391.71,181.745C1391.56,181.148 1391.47,180.348 1391.45,179.344C1391.39,178.232 1391.36,177.241 1391.35,176.373C1391.33,175.505 1391.32,173.688 1391.32,170.921C1391.32,168.127 1391.33,166.296 1391.35,165.428C1391.36,164.56 1391.39,163.583 1391.45,162.498C1391.47,161.494 1391.56,160.694 1391.71,160.097C1391.86,159.501 1392,159.012 1392.14,158.633C1392.33,158.144 1392.55,157.717 1392.79,157.351C1393.03,156.985 1393.33,156.612 1393.68,156.232C1394.06,155.879 1394.44,155.581 1394.8,155.337C1395.17,155.093 1395.6,154.875 1396.09,154.686C1396.46,154.55 1396.95,154.408 1397.55,154.258C1398.15,154.109 1398.95,154.007 1399.95,153.953C1401.06,153.899 1402.05,153.865 1402.9,153.851C1403.76,153.838 1405.58,153.831 1408.37,153.831ZM1408.37,150.088C1405.55,150.088 1403.69,150.094 1402.8,150.108C1401.9,150.122 1400.9,150.155 1399.79,150.21C1398.68,150.264 1397.72,150.372 1396.92,150.535C1396.12,150.698 1395.39,150.915 1394.74,151.186C1394.04,151.458 1393.39,151.783 1392.79,152.163C1392.19,152.543 1391.61,153.017 1391.04,153.587C1390.47,154.157 1390,154.74 1389.62,155.337C1389.24,155.933 1388.91,156.584 1388.64,157.29C1388.37,157.941 1388.15,158.666 1387.99,159.467C1387.83,160.267 1387.72,161.223 1387.66,162.335C1387.61,163.448 1387.57,164.451 1387.56,165.346C1387.55,166.242 1387.54,168.1 1387.54,170.921C1387.54,173.742 1387.55,175.6 1387.56,176.496C1387.57,177.391 1387.61,178.394 1387.66,179.507C1387.72,180.619 1387.83,181.575 1387.99,182.375C1388.15,183.175 1388.37,183.901 1388.64,184.552C1388.91,185.257 1389.24,185.908 1389.62,186.505C1390,187.102 1390.47,187.685 1391.04,188.255C1391.61,188.825 1392.19,189.299 1392.79,189.679C1393.39,190.059 1394.04,190.384 1394.74,190.656C1395.39,190.9 1396.12,191.11 1396.92,191.286C1397.72,191.463 1398.68,191.578 1399.79,191.632C1400.9,191.686 1401.9,191.72 1402.8,191.734C1403.69,191.748 1405.55,191.754 1408.37,191.754C1411.19,191.754 1413.05,191.748 1413.95,191.734C1414.84,191.72 1415.85,191.686 1416.96,191.632C1418.07,191.578 1419.03,191.463 1419.83,191.286C1420.63,191.11 1421.35,190.9 1422.01,190.656C1422.68,190.384 1423.32,190.059 1423.92,189.679C1424.51,189.299 1425.11,188.825 1425.71,188.255C1426.28,187.685 1426.75,187.102 1427.13,186.505C1427.51,185.908 1427.84,185.257 1428.11,184.552C1428.35,183.901 1428.56,183.175 1428.74,182.375C1428.91,181.575 1429.02,180.619 1429.04,179.507C1429.1,178.394 1429.13,177.391 1429.15,176.496C1429.16,175.6 1429.17,173.742 1429.17,170.921C1429.17,168.1 1429.16,166.242 1429.15,165.346C1429.13,164.451 1429.1,163.448 1429.04,162.335C1429.02,161.223 1428.91,160.267 1428.74,159.467C1428.56,158.666 1428.35,157.941 1428.11,157.29C1427.84,156.612 1427.51,155.967 1427.13,155.357C1426.75,154.747 1426.28,154.157 1425.71,153.587C1425.14,153.017 1424.56,152.543 1423.96,152.163C1423.36,151.783 1422.71,151.458 1422.01,151.186C1421.35,150.942 1420.63,150.732 1419.83,150.556C1419.03,150.379 1418.07,150.264 1416.96,150.21C1415.85,150.155 1414.84,150.122 1413.95,150.108C1413.05,150.094 1411.19,150.088 1408.37,150.088ZM1408.37,160.219C1406.91,160.219 1405.53,160.504 1404.22,161.074C1402.92,161.616 1401.78,162.376 1400.81,163.353C1399.83,164.329 1399.07,165.468 1398.53,166.771C1397.96,168.073 1397.67,169.456 1397.67,170.921C1397.67,172.386 1397.96,173.769 1398.53,175.071C1399.07,176.373 1399.83,177.513 1400.81,178.489C1401.78,179.466 1402.92,180.225 1404.22,180.768C1405.53,181.338 1406.91,181.622 1408.37,181.622C1409.84,181.622 1411.22,181.338 1412.52,180.768C1413.83,180.225 1414.96,179.466 1415.94,178.489C1416.92,177.513 1417.68,176.373 1418.22,175.071C1418.79,173.769 1419.08,172.386 1419.08,170.921C1419.08,169.456 1418.79,168.073 1418.22,166.771C1417.68,165.468 1416.92,164.329 1415.94,163.353C1414.96,162.376 1413.83,161.616 1412.52,161.074C1411.22,160.504 1409.84,160.219 1408.37,160.219ZM1408.37,177.879C1406.45,177.879 1404.81,177.201 1403.45,175.844C1402.09,174.488 1401.41,172.847 1401.41,170.921C1401.41,168.995 1402.09,167.354 1403.45,165.997C1404.81,164.641 1406.45,163.963 1408.37,163.963C1410.3,163.963 1411.94,164.641 1413.3,165.997C1414.65,167.354 1415.33,168.995 1415.33,170.921C1415.33,172.847 1414.65,174.488 1413.3,175.844C1411.94,177.201 1410.3,177.879 1408.37,177.879ZM1422.01,159.813C1422.01,160.491 1421.76,161.074 1421.27,161.562C1420.78,162.051 1420.19,162.295 1419.48,162.295C1418.8,162.295 1418.22,162.051 1417.73,161.562C1417.24,161.074 1417,160.491 1417,159.813C1417,159.107 1417.24,158.51 1417.73,158.022C1418.22,157.534 1418.8,157.29 1419.48,157.29C1420.19,157.29 1420.78,157.534 1421.27,158.022C1421.76,158.51 1422.01,159.107 1422.01,159.813Z" style="fill:rgb(5,52,81);fill-rule:nonzero;"/>
    </g>
</svg>
