<?xml version="1.0" encoding="UTF-8" standalone="no"?>
<!DOCTYPE svg PUBLIC "-//W3C//DTD SVG 1.1//EN" "http://www.w3.org/Graphics/SVG/1.1/DTD/svg11.dtd">
<svg width="100%" height="100%" viewBox="0 0 724 97" version="1.1" xmlns="http://www.w3.org/2000/svg" xmlns:xlink="http://www.w3.org/1999/xlink" xml:space="preserve" xmlns:serif="http://www.serif.com/" style="fill-rule:evenodd;clip-rule:evenodd;stroke-linejoin:round;stroke-miterlimit:2;">
    <g transform="matrix(1.46534,0,0,4.75707,-4158.2,-88.4749)">
        <g transform="matrix(1.58662,0,0,0.488732,2854.71,-142.704)">
            <path d="M68.066,341.79L78.051,356.869L78.308,356.869L78.308,341.79L81.602,341.79L81.602,359.803L76.224,359.803L66.188,344.723L65.93,344.723L65.93,359.803L62.636,359.803L62.636,341.79L68.066,341.79ZM84.381,352.289L84.381,349.304C84.381,344.646 87.495,341.532 92.153,341.532L98.02,341.532C102.678,341.532 105.766,344.646 105.766,349.304L105.766,352.289C105.766,356.947 102.678,360.06 98.02,360.06L92.153,360.06C87.495,360.06 84.381,356.947 84.381,352.289ZM92.307,357.127L97.84,357.127C100.619,357.127 102.472,355.274 102.472,352.495L102.472,349.098C102.472,346.319 100.619,344.466 97.84,344.466L92.307,344.466C89.528,344.466 87.675,346.319 87.675,349.098L87.675,352.495C87.675,355.274 89.528,357.127 92.307,357.127ZM108.545,359.803L108.545,341.79L121.231,341.79C125.04,341.79 127.562,344.054 127.562,347.863C127.562,351.182 125.76,353.267 122.904,353.859L127.819,359.803L123.882,359.803L119.198,354.039L111.839,354.039L111.839,359.803L108.545,359.803ZM111.839,351.105L121.36,351.105C123.11,351.105 124.268,349.947 124.268,348.197L124.268,347.631C124.268,345.881 123.11,344.723 121.36,344.723L111.839,344.723L111.839,351.105ZM136.826,359.803L136.826,344.723L129.157,344.723L129.157,341.79L147.814,341.79L147.814,344.723L140.12,344.723L140.12,359.803L136.826,359.803ZM166.007,359.803L166.007,352.289L153.475,352.289L153.475,359.803L150.181,359.803L150.181,341.79L153.475,341.79L153.475,349.304L166.007,349.304L166.007,341.79L169.301,341.79L169.301,359.803L166.007,359.803ZM173.007,359.803L173.007,341.79L190.403,341.79L190.403,344.62L176.301,344.62L176.301,349.407L188.962,349.407L188.962,352.186L176.301,352.186L176.301,356.972L190.403,356.972L190.403,359.803L173.007,359.803ZM193.233,359.803L193.233,341.79L205.92,341.79C209.728,341.79 212.25,344.054 212.25,347.863C212.25,351.182 210.449,353.267 207.593,353.859L212.508,359.803L208.57,359.803L203.887,354.039L196.527,354.039L196.527,359.803L193.233,359.803ZM196.527,351.105L206.049,351.105C207.798,351.105 208.956,349.947 208.956,348.197L208.956,347.631C208.956,345.881 207.798,344.723 206.049,344.723L196.527,344.723L196.527,351.105ZM220.511,341.79L230.495,356.869L230.753,356.869L230.753,341.79L234.046,341.79L234.046,359.803L228.668,359.803L218.632,344.723L218.375,344.723L218.375,359.803L215.081,359.803L215.081,341.79L220.511,341.79ZM240.222,354.399C240.634,356.097 242.204,357.178 244.237,357.178L250.542,357.178C252.137,357.178 253.63,356.458 253.63,354.656C253.63,352.984 252.343,352.109 250.542,352.109L243.079,352.109C239.965,352.109 237.083,350.359 237.083,346.833C237.083,343.102 240.3,341.584 243.439,341.584L249.924,341.584C253.835,341.584 256.64,343.72 257.181,347.168L253.758,347.168C253.347,345.469 251.803,344.414 249.77,344.414L243.439,344.414C241.869,344.414 240.377,345.109 240.377,346.936C240.377,348.583 241.664,349.458 243.439,349.458L250.85,349.458C254.119,349.458 256.923,351.285 256.923,354.785C256.923,358.516 253.681,360.009 250.542,360.009L244.057,360.009C240.145,360.009 237.34,357.873 236.826,354.399L240.222,354.399ZM259.548,359.803L259.548,341.79L262.842,341.79L262.842,349.329L267.783,349.329L274.448,341.79L278.591,341.79L270.665,350.668L270.665,350.925L278.591,359.803L274.448,359.803L267.783,352.263L262.842,352.263L262.842,359.803L259.548,359.803ZM288.241,359.803L288.241,353.781L279.209,341.79L283.12,341.79L289.759,350.796L290.017,350.796L296.682,341.79L300.593,341.79L291.535,353.807L291.535,359.803L288.241,359.803ZM18.773,351.631L48.261,371.549L18.773,358.092L-10.714,371.549L18.773,351.631ZM18.773,340.837L48.261,360.755L18.773,347.299L-10.714,360.755L18.773,340.837ZM18.773,330.044L48.261,349.962L18.773,336.505L-10.714,349.962L18.773,330.044Z" style="fill:rgb(5,52,81);"/>
        </g>
    </g>
</svg>
