<?xml version="1.0" encoding="UTF-8" standalone="no"?>
<!DOCTYPE svg PUBLIC "-//W3C//DTD SVG 1.1//EN" "http://www.w3.org/Graphics/SVG/1.1/DTD/svg11.dtd">
<svg width="100%" height="100%" viewBox="0 0 2495 687" version="1.1" xmlns="http://www.w3.org/2000/svg" xmlns:xlink="http://www.w3.org/1999/xlink" xml:space="preserve" xmlns:serif="http://www.serif.com/" style="fill-rule:evenodd;clip-rule:evenodd;stroke-linejoin:round;stroke-miterlimit:2;">
    <g transform="matrix(0.815094,0,0,0.815094,-1336.06,-77.7336)">
        <path d="M1667.02,96.688L1639.15,96.688L1639.15,189.15L1656.06,189.15L1656.06,111.747L1657.38,111.747L1708.89,189.15L1736.5,189.15L1736.5,96.688L1719.59,96.688L1719.59,174.092L1718.27,174.092L1667.02,96.688Z" style="fill:rgb(132,171,195);fill-rule:nonzero;"/>
    </g>
    <g transform="matrix(0.815094,0,0,0.815094,-1336.06,-77.7336)">
        <path d="M1790.39,150.58C1790.39,174.488 1806.37,190.471 1830.28,190.471L1860.4,190.471C1884.3,190.471 1900.15,174.488 1900.15,150.58L1900.15,135.258C1900.15,111.35 1884.3,95.368 1860.4,95.368L1830.28,95.368C1806.37,95.368 1790.39,111.35 1790.39,135.258L1790.39,150.58ZM1831.07,175.413C1816.81,175.413 1807.3,165.903 1807.3,151.637L1807.3,134.201C1807.3,119.936 1816.81,110.426 1831.07,110.426L1859.47,110.426C1873.74,110.426 1883.25,119.936 1883.25,134.201L1883.25,151.637C1883.25,165.903 1873.74,175.413 1859.47,175.413L1831.07,175.413Z" style="fill:rgb(132,171,195);fill-rule:nonzero;"/>
    </g>
    <g transform="matrix(0.815094,0,0,0.815094,-1336.06,-77.7336)">
        <path d="M1954.05,189.15L1970.95,189.15L1970.95,159.562L2008.73,159.562L2032.77,189.15L2052.98,189.15L2027.75,158.638C2042.41,155.6 2051.66,144.901 2051.66,127.861C2051.66,108.312 2038.71,96.688 2019.16,96.688L1954.05,96.688L1954.05,189.15ZM1970.95,144.504L1970.95,111.747L2019.83,111.747C2028.81,111.747 2034.75,117.69 2034.75,126.672L2034.75,129.578C2034.75,138.56 2028.81,144.504 2019.83,144.504L1970.95,144.504Z" style="fill:rgb(132,171,195);fill-rule:nonzero;"/>
    </g>
    <g transform="matrix(0.815094,0,0,0.815094,-1336.06,-77.7336)">
        <path d="M2138.84,189.15L2155.74,189.15L2155.74,111.747L2195.24,111.747L2195.24,96.688L2099.47,96.688L2099.47,111.747L2138.84,111.747L2138.84,189.15Z" style="fill:rgb(132,171,195);fill-rule:nonzero;"/>
    </g>
    <g transform="matrix(0.815094,0,0,0.815094,-1336.06,-77.7336)">
        <path d="M2328.25,189.15L2345.16,189.15L2345.16,96.688L2328.25,96.688L2328.25,135.258L2263.93,135.258L2263.93,96.688L2247.02,96.688L2247.02,189.15L2263.93,189.15L2263.93,150.58L2328.25,150.58L2328.25,189.15Z" style="fill:rgb(132,171,195);fill-rule:nonzero;"/>
    </g>
    <g transform="matrix(0.815094,0,0,0.815094,-1336.06,-77.7336)">
        <path d="M2403.81,189.15L2493.1,189.15L2493.1,174.62L2420.71,174.62L2420.71,150.052L2485.7,150.052L2485.7,135.787L2420.71,135.787L2420.71,111.218L2493.1,111.218L2493.1,96.688L2403.81,96.688L2403.81,189.15Z" style="fill:rgb(132,171,195);fill-rule:nonzero;"/>
    </g>
    <g transform="matrix(0.815094,0,0,0.815094,-1336.06,-77.7336)">
        <path d="M2547.25,189.15L2564.16,189.15L2564.16,159.562L2601.94,159.562L2625.98,189.15L2646.19,189.15L2620.96,158.638C2635.62,155.6 2644.87,144.901 2644.87,127.861C2644.87,108.312 2631.92,96.688 2612.37,96.688L2547.25,96.688L2547.25,189.15ZM2564.16,144.504L2564.16,111.747L2613.03,111.747C2622.01,111.747 2627.96,117.69 2627.96,126.672L2627.96,129.578C2627.96,138.56 2622.01,144.504 2613.03,144.504L2564.16,144.504Z" style="fill:rgb(132,171,195);fill-rule:nonzero;"/>
    </g>
    <g transform="matrix(0.815094,0,0,0.815094,-1336.06,-77.7336)">
        <path d="M2726.89,96.688L2699.02,96.688L2699.02,189.15L2715.93,189.15L2715.93,111.747L2717.25,111.747L2768.76,189.15L2796.37,189.15L2796.37,96.688L2779.46,96.688L2779.46,174.092L2778.14,174.092L2726.89,96.688Z" style="fill:rgb(132,171,195);fill-rule:nonzero;"/>
    </g>
    <g transform="matrix(0.815094,0,0,0.815094,-1336.06,-77.7336)">
        <path d="M2867.7,161.412L2850.26,161.412C2852.91,179.244 2867.3,190.207 2887.38,190.207L2920.67,190.207C2936.78,190.207 2953.42,182.546 2953.42,163.393C2953.42,145.429 2939.03,136.051 2922.25,136.051L2884.21,136.051C2875.1,136.051 2868.49,131.56 2868.49,123.106C2868.49,113.728 2876.15,110.161 2884.21,110.161L2916.7,110.161C2927.14,110.161 2935.06,115.577 2937.18,124.295L2954.74,124.295C2951.97,106.595 2937.57,95.632 2917.5,95.632L2884.21,95.632C2868.1,95.632 2851.59,103.425 2851.59,122.578C2851.59,140.674 2866.38,149.656 2882.36,149.656L2920.67,149.656C2929.91,149.656 2936.52,154.147 2936.52,162.733C2936.52,171.979 2928.86,175.677 2920.67,175.677L2888.3,175.677C2877.87,175.677 2869.81,170.129 2867.7,161.412Z" style="fill:rgb(132,171,195);fill-rule:nonzero;"/>
    </g>
    <g transform="matrix(0.815094,0,0,0.815094,-1336.06,-77.7336)">
        <path d="M3006.52,189.15L3023.43,189.15L3023.43,150.448L3048.79,150.448L3083,189.15L3104.27,189.15L3063.59,143.58L3063.59,142.259L3104.27,96.688L3083,96.688L3048.79,135.39L3023.43,135.39L3023.43,96.688L3006.52,96.688L3006.52,189.15Z" style="fill:rgb(132,171,195);fill-rule:nonzero;"/>
    </g>
    <g transform="matrix(0.815094,0,0,0.815094,-1336.06,-77.7336)">
        <path d="M3193.43,189.15L3210.34,189.15L3210.34,158.374L3256.83,96.688L3236.75,96.688L3202.54,142.919L3201.22,142.919L3167.14,96.688L3147.07,96.688L3193.43,158.242L3193.43,189.15Z" style="fill:rgb(132,171,195);fill-rule:nonzero;"/>
    </g>
    <g transform="matrix(4.71776,0,0,4.71776,-7726.88,-214.279)">
        <path d="M1703.74,95.632C1703.39,98.714 1703.14,101.708 1703.01,104.614C1702.88,107.52 1702.82,109.721 1702.82,111.218C1702.82,112.803 1702.86,114.322 1702.95,115.775C1703.04,117.228 1703.12,118.439 1703.21,119.408L1700.17,119.408C1699.64,114.212 1698.9,110.095 1697.93,107.057C1696.96,104.019 1695.31,101.862 1692.97,100.585C1690.64,99.308 1687.14,98.67 1682.47,98.67L1671.51,98.67C1668.52,98.67 1666.25,98.912 1664.71,99.396C1663.17,99.881 1662.13,100.893 1661.6,102.434C1661.08,103.975 1660.81,106.375 1660.81,109.633L1660.81,175.149C1660.81,178.319 1661.08,180.696 1661.6,182.282C1662.13,183.867 1663.17,184.901 1664.71,185.386C1666.25,185.87 1668.52,186.112 1671.51,186.112L1681.15,186.112C1686.7,186.112 1690.9,185.364 1693.77,183.867C1696.63,182.37 1698.7,179.926 1699.98,176.536C1701.25,173.145 1702.2,168.544 1702.82,162.733L1705.85,162.733C1705.59,165.11 1705.46,168.28 1705.46,172.243C1705.46,173.916 1705.52,176.316 1705.65,179.442C1705.79,182.568 1706.03,185.804 1706.38,189.15C1701.89,188.974 1696.83,188.864 1691.19,188.82C1685.56,188.776 1680.54,188.754 1676.13,188.754L1668.67,188.754C1665.63,188.754 1662.35,188.776 1658.83,188.82C1655.31,188.864 1651.74,188.908 1648.13,188.952C1644.52,188.996 1641.09,189.062 1637.83,189.15L1637.83,186.508C1640.82,186.332 1643.09,185.98 1644.63,185.452C1646.17,184.923 1647.2,183.867 1647.73,182.282C1648.26,180.696 1648.53,178.319 1648.53,175.149L1648.53,109.633C1648.53,106.375 1648.26,103.975 1647.73,102.434C1647.2,100.893 1646.17,99.837 1644.63,99.264C1643.09,98.692 1640.82,98.362 1637.83,98.274L1637.83,95.632C1641.09,95.72 1644.52,95.786 1648.13,95.83C1651.74,95.874 1655.31,95.918 1658.83,95.962C1662.35,96.006 1665.63,96.028 1668.67,96.028L1676.13,96.028C1680.18,96.028 1684.78,96.006 1689.94,95.962C1695.09,95.918 1699.69,95.808 1703.74,95.632ZM1681.02,140.806L1681.02,143.448L1656.85,143.448L1656.85,140.806L1681.02,140.806ZM1684.85,123.37C1684.5,128.39 1684.34,132.22 1684.39,134.862C1684.43,137.504 1684.45,139.925 1684.45,142.127C1684.45,144.328 1684.5,146.75 1684.59,149.392C1684.67,152.033 1684.89,155.864 1685.25,160.883L1682.21,160.883C1681.86,158.065 1681.44,155.314 1680.95,152.628C1680.47,149.942 1679.41,147.741 1677.78,146.023C1676.15,144.306 1673.4,143.448 1669.53,143.448L1669.53,140.806C1672.43,140.806 1674.66,140.211 1676.2,139.023C1677.74,137.834 1678.86,136.315 1679.57,134.466C1680.27,132.616 1680.76,130.701 1681.02,128.72C1681.28,126.739 1681.55,124.955 1681.81,123.37L1684.85,123.37Z" style="fill:url(#_Linear1);fill-rule:nonzero;"/>
    </g>
    <g transform="matrix(4.71776,0,0,4.71776,-7726.88,-214.279)">
        <path d="M1739.93,95.632L1739.93,98.406C1735.53,98.406 1732.84,98.868 1731.87,99.793C1730.9,100.717 1731.04,102.192 1732.27,104.217L1781.67,179.772C1783.34,182.326 1784.75,184.021 1785.9,184.857C1787.04,185.694 1788.58,186.2 1790.52,186.376L1790.52,189.15C1789.38,189.062 1787.77,188.952 1785.7,188.82C1783.63,188.688 1781.45,188.622 1779.16,188.622C1775.64,188.622 1772.1,188.688 1768.53,188.82C1764.96,188.952 1762.3,189.062 1760.54,189.15L1760.54,186.376C1764.94,186.376 1767.76,186.112 1768.99,185.584C1770.22,185.055 1770.22,183.823 1768.99,181.885L1718.8,105.01C1717.12,102.456 1715.74,100.739 1714.64,99.859C1713.54,98.978 1711.97,98.494 1709.95,98.406L1709.95,95.632C1711.09,95.72 1712.72,95.83 1714.84,95.962C1716.95,96.094 1719.11,96.16 1721.31,96.16C1724.92,96.16 1728.31,96.094 1731.48,95.962C1734.65,95.83 1737.47,95.72 1739.93,95.632ZM1747.2,140.938C1747.2,140.938 1747.28,141.224 1747.46,141.797C1747.64,142.369 1747.84,142.941 1748.06,143.514C1748.28,144.086 1748.38,144.372 1748.38,144.372L1732.14,168.544C1728.97,173.3 1727.32,176.954 1727.18,179.508C1727.05,182.061 1728.04,183.845 1730.16,184.857C1732.27,185.87 1735.18,186.42 1738.88,186.508L1738.88,189.15C1737.64,189.062 1736.23,188.996 1734.65,188.952C1733.06,188.908 1731.46,188.864 1729.83,188.82C1728.2,188.776 1726.61,188.754 1725.07,188.754L1721.04,188.754C1718.84,188.754 1716.75,188.776 1714.77,188.82C1712.79,188.864 1711.14,188.974 1709.82,189.15L1709.82,186.508C1712.55,186.068 1715.1,184.835 1717.48,182.81C1719.85,180.785 1722.28,177.967 1724.74,174.356L1747.2,140.938ZM1787.75,95.632L1787.75,98.274C1785.02,98.626 1782.46,99.837 1780.09,101.906C1777.71,103.975 1775.29,106.815 1772.82,110.426L1751.56,142.127L1750.76,138.692L1765.82,116.238C1768.99,111.482 1770.84,107.828 1771.37,105.274C1771.9,102.72 1771.28,100.937 1769.52,99.925C1767.76,98.912 1765.03,98.362 1761.33,98.274L1761.33,95.632C1763,95.72 1764.72,95.786 1766.48,95.83C1768.24,95.874 1769.98,95.918 1771.7,95.962C1773.42,96.006 1775.02,96.028 1776.52,96.028C1778.81,96.028 1780.92,95.984 1782.86,95.896C1784.8,95.808 1786.43,95.72 1787.75,95.632Z" style="fill:url(#_Linear2);fill-rule:nonzero;"/>
    </g>
    <g transform="matrix(4.71776,0,0,4.71776,-7726.88,-214.279)">
        <path d="M1832,93.783C1837.81,93.783 1842.59,94.641 1846.33,96.358C1850.07,98.075 1853.39,100.079 1856.3,102.368C1858.06,103.689 1859.4,103.843 1860.33,102.831C1861.25,101.818 1861.89,99.418 1862.25,95.632L1865.28,95.632C1865.11,98.89 1864.98,102.853 1864.89,107.52C1864.8,112.187 1864.75,118.351 1864.75,126.012L1861.72,126.012C1861.1,122.226 1860.53,119.209 1860,116.964C1859.47,114.718 1858.83,112.803 1858.08,111.218C1857.34,109.633 1856.35,108.048 1855.11,106.463C1852.38,102.853 1848.95,100.233 1844.81,98.604C1840.67,96.975 1836.31,96.16 1831.73,96.16C1827.42,96.16 1823.52,97.239 1820.04,99.396C1816.56,101.554 1813.57,104.658 1811.06,108.708C1808.55,112.759 1806.61,117.646 1805.25,123.37C1803.88,129.094 1803.2,135.522 1803.2,142.655C1803.2,150.052 1803.95,156.59 1805.45,162.27C1806.94,167.95 1809.04,172.727 1811.72,176.602C1814.41,180.476 1817.58,183.404 1821.23,185.386C1824.89,187.367 1828.83,188.358 1833.05,188.358C1837.02,188.358 1841.15,187.565 1845.47,185.98C1849.79,184.395 1853.17,181.841 1855.64,178.319C1857.58,175.765 1858.92,172.991 1859.67,169.997C1860.42,167.003 1861.1,162.821 1861.72,157.449L1864.75,157.449C1864.75,165.462 1864.8,171.913 1864.89,176.8C1864.98,181.687 1865.11,185.804 1865.28,189.15L1862.25,189.15C1861.89,185.364 1861.3,182.986 1860.46,182.017C1859.62,181.049 1858.24,181.181 1856.3,182.414C1853.04,184.703 1849.59,186.706 1845.93,188.424C1842.28,190.141 1837.59,190.999 1831.87,190.999C1823.5,190.999 1816.17,189.106 1809.87,185.32C1803.58,181.533 1798.69,176.073 1795.21,168.941C1791.73,161.808 1789.99,153.222 1789.99,143.183C1789.99,133.321 1791.8,124.691 1795.41,117.294C1799.02,109.897 1803.97,104.129 1810.27,99.991C1816.56,95.852 1823.81,93.783 1832,93.783Z" style="fill:url(#_Linear3);fill-rule:nonzero;"/>
    </g>
    <g transform="matrix(4.71776,0,0,4.71776,-7726.88,-214.279)">
        <path d="M1940.31,95.632C1939.96,98.714 1939.71,101.708 1939.58,104.614C1939.45,107.52 1939.38,109.721 1939.38,111.218C1939.38,112.803 1939.43,114.322 1939.52,115.775C1939.6,117.228 1939.69,118.439 1939.78,119.408L1936.74,119.408C1936.21,114.212 1935.47,110.095 1934.5,107.057C1933.53,104.019 1931.88,101.862 1929.54,100.585C1927.21,99.308 1923.71,98.67 1919.04,98.67L1908.08,98.67C1905.09,98.67 1902.82,98.912 1901.28,99.396C1899.74,99.881 1898.7,100.893 1898.17,102.434C1897.64,103.975 1897.38,106.375 1897.38,109.633L1897.38,175.149C1897.38,178.319 1897.64,180.696 1898.17,182.282C1898.7,183.867 1899.74,184.901 1901.28,185.386C1902.82,185.87 1905.09,186.112 1908.08,186.112L1917.72,186.112C1923.27,186.112 1927.47,185.364 1930.34,183.867C1933.2,182.37 1935.27,179.926 1936.54,176.536C1937.82,173.145 1938.77,168.544 1939.38,162.733L1942.42,162.733C1942.16,165.11 1942.03,168.28 1942.03,172.243C1942.03,173.916 1942.09,176.316 1942.22,179.442C1942.36,182.568 1942.6,185.804 1942.95,189.15C1938.46,188.974 1933.4,188.864 1927.76,188.82C1922.12,188.776 1917.11,188.754 1912.7,188.754L1905.24,188.754C1902.2,188.754 1898.92,188.776 1895.4,188.82C1891.88,188.864 1888.31,188.908 1884.7,188.952C1881.09,188.996 1877.65,189.062 1874.4,189.15L1874.4,186.508C1877.39,186.332 1879.66,185.98 1881.2,185.452C1882.74,184.923 1883.78,183.867 1884.3,182.282C1884.83,180.696 1885.1,178.319 1885.1,175.149L1885.1,109.633C1885.1,106.375 1884.83,103.975 1884.3,102.434C1883.78,100.893 1882.74,99.837 1881.2,99.264C1879.66,98.692 1877.39,98.362 1874.4,98.274L1874.4,95.632C1877.65,95.72 1881.09,95.786 1884.7,95.83C1888.31,95.874 1891.88,95.918 1895.4,95.962C1898.92,96.006 1902.2,96.028 1905.24,96.028L1912.7,96.028C1916.75,96.028 1921.35,96.006 1926.51,95.962C1931.66,95.918 1936.26,95.808 1940.31,95.632ZM1917.59,140.806L1917.59,143.448L1893.42,143.448L1893.42,140.806L1917.59,140.806ZM1921.42,123.37C1921.07,128.39 1920.91,132.22 1920.96,134.862C1921,137.504 1921.02,139.925 1921.02,142.127C1921.02,144.328 1921.07,146.75 1921.16,149.392C1921.24,152.033 1921.46,155.864 1921.82,160.883L1918.78,160.883C1918.43,158.065 1918.01,155.314 1917.52,152.628C1917.04,149.942 1915.98,147.741 1914.35,146.023C1912.72,144.306 1909.97,143.448 1906.1,143.448L1906.1,140.806C1909,140.806 1911.23,140.211 1912.77,139.023C1914.31,137.834 1915.43,136.315 1916.14,134.466C1916.84,132.616 1917.33,130.701 1917.59,128.72C1917.85,126.739 1918.12,124.955 1918.38,123.37L1921.42,123.37Z" style="fill:url(#_Linear4);fill-rule:nonzero;"/>
    </g>
    <g transform="matrix(4.71776,0,0,4.71776,-7726.88,-214.279)">
        <path d="M1983.5,95.632L1983.5,98.274C1980.51,98.362 1978.24,98.692 1976.7,99.264C1975.16,99.837 1974.12,100.893 1973.6,102.434C1973.07,103.975 1972.8,106.375 1972.8,109.633L1972.8,175.149C1972.8,178.319 1973.07,180.696 1973.6,182.282C1974.12,183.867 1975.16,184.901 1976.7,185.386C1978.24,185.87 1980.51,186.112 1983.5,186.112L1993.14,186.112C1997.28,186.112 2000.65,185.672 2003.25,184.791C2005.85,183.911 2007.92,182.524 2009.46,180.63C2011,178.737 2012.16,176.205 2012.96,173.035C2013.75,169.865 2014.37,165.991 2014.81,161.412L2017.85,161.412C2017.58,164.141 2017.45,167.752 2017.45,172.243C2017.45,173.916 2017.51,176.316 2017.65,179.442C2017.78,182.568 2018.02,185.804 2018.37,189.15C2013.88,188.974 2008.82,188.864 2003.18,188.82C1997.55,188.776 1992.53,188.754 1988.12,188.754L1980.66,188.754C1977.62,188.754 1974.34,188.776 1970.82,188.82C1967.3,188.864 1963.73,188.908 1960.12,188.952C1956.51,188.996 1953.08,189.062 1949.82,189.15L1949.82,186.508C1952.81,186.332 1955.08,185.98 1956.62,185.452C1958.16,184.923 1959.2,183.867 1959.73,182.282C1960.25,180.696 1960.52,178.319 1960.52,175.149L1960.52,109.633C1960.52,106.375 1960.25,103.975 1959.73,102.434C1959.2,100.893 1958.16,99.837 1956.62,99.264C1955.08,98.692 1952.81,98.362 1949.82,98.274L1949.82,95.632C1951.67,95.72 1954.09,95.808 1957.08,95.896C1960.08,95.984 1963.29,96.028 1966.73,96.028C1969.81,96.028 1972.87,95.984 1975.91,95.896C1978.94,95.808 1981.48,95.72 1983.5,95.632Z" style="fill:url(#_Linear5);fill-rule:nonzero;"/>
    </g>
    <g transform="matrix(4.71776,0,0,4.71776,-7726.88,-214.279)">
        <path d="M2050.74,94.179C2055.14,94.179 2058.48,94.685 2060.77,95.698C2063.06,96.71 2065.09,97.833 2066.85,99.066C2067.91,99.682 2068.76,100.145 2069.43,100.453C2070.09,100.761 2070.72,100.915 2071.34,100.915C2072.22,100.915 2072.86,100.431 2073.26,99.462C2073.65,98.494 2073.98,97.041 2074.25,95.103L2077.28,95.103C2077.2,96.6 2077.09,98.384 2076.95,100.453C2076.82,102.522 2076.73,105.252 2076.69,108.642C2076.65,112.033 2076.62,116.502 2076.62,122.049L2073.59,122.049C2073.32,117.823 2072.4,113.772 2070.81,109.897C2069.23,106.023 2066.91,102.853 2063.88,100.387C2060.84,97.921 2056.86,96.688 2051.92,96.688C2047.26,96.688 2043.4,98.097 2040.37,100.915C2037.33,103.733 2035.81,107.432 2035.81,112.011C2035.81,115.973 2036.82,119.298 2038.85,121.983C2040.87,124.669 2043.58,127.091 2046.97,129.248C2050.36,131.406 2054.04,133.717 2058,136.183C2062.58,139.001 2066.65,141.797 2070.22,144.57C2073.78,147.344 2076.6,150.404 2078.67,153.751C2080.74,157.097 2081.78,161.147 2081.78,165.903C2081.78,171.538 2080.5,176.205 2077.95,179.904C2075.39,183.602 2072,186.376 2067.77,188.226C2063.55,190.075 2058.88,190.999 2053.77,190.999C2049.11,190.999 2045.41,190.471 2042.68,189.414C2039.95,188.358 2037.61,187.257 2035.68,186.112C2033.74,184.879 2032.24,184.263 2031.18,184.263C2030.31,184.263 2029.67,184.747 2029.27,185.716C2028.87,186.684 2028.54,188.137 2028.28,190.075L2025.24,190.075C2025.42,188.226 2025.53,186.046 2025.57,183.536C2025.62,181.027 2025.66,177.747 2025.7,173.696C2025.75,169.645 2025.77,164.538 2025.77,158.374L2028.81,158.374C2029.16,163.657 2030.15,168.588 2031.78,173.167C2033.41,177.747 2035.92,181.423 2039.31,184.197C2042.7,186.971 2047.21,188.358 2052.85,188.358C2055.75,188.358 2058.51,187.763 2061.1,186.574C2063.7,185.386 2065.84,183.492 2067.51,180.895C2069.18,178.297 2070.02,174.929 2070.02,170.79C2070.02,167.179 2069.16,164.031 2067.44,161.346C2065.73,158.66 2063.33,156.15 2060.24,153.817C2057.16,151.483 2053.55,149.083 2049.41,146.618C2045.28,144.064 2041.4,141.466 2037.79,138.825C2034.18,136.183 2031.3,133.123 2029.14,129.644C2026.98,126.166 2025.9,121.961 2025.9,117.03C2025.9,111.835 2027.07,107.542 2029.4,104.151C2031.74,100.761 2034.8,98.252 2038.58,96.622C2042.37,94.993 2046.42,94.179 2050.74,94.179Z" style="fill:url(#_Linear6);fill-rule:nonzero;"/>
    </g>
    <g transform="matrix(4.71776,0,0,4.71776,-7726.88,-214.279)">
        <path d="M2125.23,94.971L2157.46,178.055C2158.78,181.401 2160.28,183.624 2161.95,184.725C2163.63,185.826 2165.17,186.42 2166.58,186.508L2166.58,189.15C2164.82,188.974 2162.66,188.864 2160.1,188.82C2157.55,188.776 2155,188.754 2152.44,188.754C2149.01,188.754 2145.79,188.776 2142.8,188.82C2139.81,188.864 2137.38,188.974 2135.53,189.15L2135.53,186.508C2140.03,186.332 2142.89,185.562 2144.12,184.197C2145.35,182.832 2145.09,179.904 2143.33,175.413L2118.76,109.765L2120.87,108.048L2097.89,167.752C2096.48,171.274 2095.64,174.246 2095.38,176.668C2095.12,179.089 2095.36,181.005 2096.11,182.414C2096.86,183.823 2098.13,184.835 2099.94,185.452C2101.74,186.068 2104.01,186.42 2106.74,186.508L2106.74,189.15C2104.27,188.974 2101.7,188.864 2099.01,188.82C2096.33,188.776 2093.84,188.754 2091.55,188.754C2089.35,188.754 2087.48,188.776 2085.94,188.82C2084.39,188.864 2082.96,188.974 2081.64,189.15L2081.64,186.508C2083.4,186.068 2085.21,185.033 2087.06,183.404C2088.91,181.775 2090.58,178.979 2092.08,175.017L2123.12,94.971L2125.23,94.971ZM2141.35,151.109L2141.35,153.751L2101.99,153.751L2103.31,151.109L2141.35,151.109Z" style="fill:url(#_Linear7);fill-rule:nonzero;"/>
    </g>
    <defs>
        <linearGradient id="_Linear1" x1="0" y1="0" x2="1" y2="0" gradientUnits="userSpaceOnUse" gradientTransform="matrix(5.95281e-15,97.2168,-97.2168,5.95281e-15,1854.92,93.7825)"><stop offset="0" style="stop-color:white;stop-opacity:1"/><stop offset="0.49" style="stop-color:rgb(241,248,251);stop-opacity:1"/><stop offset="1" style="stop-color:rgb(200,228,241);stop-opacity:1"/></linearGradient>
        <linearGradient id="_Linear2" x1="0" y1="0" x2="1" y2="0" gradientUnits="userSpaceOnUse" gradientTransform="matrix(5.95281e-15,97.2168,-97.2168,5.95281e-15,1854.92,93.7825)"><stop offset="0" style="stop-color:white;stop-opacity:1"/><stop offset="0.49" style="stop-color:rgb(241,248,251);stop-opacity:1"/><stop offset="1" style="stop-color:rgb(200,228,241);stop-opacity:1"/></linearGradient>
        <linearGradient id="_Linear3" x1="0" y1="0" x2="1" y2="0" gradientUnits="userSpaceOnUse" gradientTransform="matrix(5.95281e-15,97.2168,-97.2168,5.95281e-15,1854.92,93.7825)"><stop offset="0" style="stop-color:white;stop-opacity:1"/><stop offset="0.49" style="stop-color:rgb(241,248,251);stop-opacity:1"/><stop offset="1" style="stop-color:rgb(200,228,241);stop-opacity:1"/></linearGradient>
        <linearGradient id="_Linear4" x1="0" y1="0" x2="1" y2="0" gradientUnits="userSpaceOnUse" gradientTransform="matrix(5.95281e-15,97.2168,-97.2168,5.95281e-15,1854.92,93.7825)"><stop offset="0" style="stop-color:white;stop-opacity:1"/><stop offset="0.49" style="stop-color:rgb(241,248,251);stop-opacity:1"/><stop offset="1" style="stop-color:rgb(200,228,241);stop-opacity:1"/></linearGradient>
        <linearGradient id="_Linear5" x1="0" y1="0" x2="1" y2="0" gradientUnits="userSpaceOnUse" gradientTransform="matrix(5.95281e-15,97.2168,-97.2168,5.95281e-15,1854.92,93.7825)"><stop offset="0" style="stop-color:white;stop-opacity:1"/><stop offset="0.49" style="stop-color:rgb(241,248,251);stop-opacity:1"/><stop offset="1" style="stop-color:rgb(200,228,241);stop-opacity:1"/></linearGradient>
        <linearGradient id="_Linear6" x1="0" y1="0" x2="1" y2="0" gradientUnits="userSpaceOnUse" gradientTransform="matrix(5.95281e-15,97.2168,-97.2168,5.95281e-15,1854.92,93.7825)"><stop offset="0" style="stop-color:white;stop-opacity:1"/><stop offset="0.49" style="stop-color:rgb(241,248,251);stop-opacity:1"/><stop offset="1" style="stop-color:rgb(200,228,241);stop-opacity:1"/></linearGradient>
        <linearGradient id="_Linear7" x1="0" y1="0" x2="1" y2="0" gradientUnits="userSpaceOnUse" gradientTransform="matrix(5.95281e-15,97.2168,-97.2168,5.95281e-15,1854.92,93.7825)"><stop offset="0" style="stop-color:white;stop-opacity:1"/><stop offset="0.49" style="stop-color:rgb(241,248,251);stop-opacity:1"/><stop offset="1" style="stop-color:rgb(200,228,241);stop-opacity:1"/></linearGradient>
    </defs>
</svg>
