<?xml version="1.0" encoding="UTF-8" standalone="no"?>
<!DOCTYPE svg PUBLIC "-//W3C//DTD SVG 1.1//EN" "http://www.w3.org/Graphics/SVG/1.1/DTD/svg11.dtd">
<svg width="100%" height="100%" viewBox="0 0 30 30" version="1.1" xmlns="http://www.w3.org/2000/svg" xmlns:xlink="http://www.w3.org/1999/xlink" xml:space="preserve" xmlns:serif="http://www.serif.com/" style="fill-rule:evenodd;clip-rule:evenodd;stroke-linejoin:round;stroke-miterlimit:2;">
    <g transform="matrix(0.421491,0,0,0.421491,-557.471,-686.571)">
        <path d="M1374.18,1671.1C1371.83,1673.44 1370.27,1675.59 1369.49,1677.54C1368.71,1679.5 1367.15,1680.47 1364.8,1680.47C1362.46,1680.47 1360.12,1679.5 1357.77,1677.54C1355.43,1675.59 1353.08,1673.44 1350.74,1671.1C1348.4,1668.75 1346.25,1666.41 1344.3,1664.07C1342.34,1661.72 1341.37,1659.38 1341.37,1657.03C1341.37,1654.69 1342.34,1653.13 1344.3,1652.35C1346.25,1651.57 1348.4,1650 1350.74,1647.66C1351.91,1646.49 1352.06,1644.85 1351.18,1642.75C1350.3,1640.65 1348.98,1638.58 1347.23,1636.53C1345.47,1634.48 1343.56,1632.69 1341.51,1631.18C1339.46,1629.67 1337.85,1628.91 1336.68,1628.91C1335.51,1628.91 1334.12,1629.64 1332.5,1631.11C1330.89,1632.57 1329.35,1634.18 1327.89,1635.94C1326.42,1637.7 1325.18,1639.31 1324.15,1640.78C1323.13,1642.24 1322.62,1642.97 1322.62,1642.97C1322.62,1645.32 1323.15,1648.15 1324.23,1651.47C1325.35,1654.84 1326.8,1658.29 1328.59,1661.83C1330.37,1665.37 1332.36,1668.78 1334.55,1672.05C1336.8,1675.37 1339.07,1678.18 1341.37,1680.47C1343.66,1682.77 1346.47,1685.04 1349.79,1687.28C1353.06,1689.48 1356.47,1691.47 1360.01,1693.25C1363.55,1695.04 1367,1696.49 1370.37,1697.61C1373.69,1698.68 1376.52,1699.22 1378.87,1699.22C1378.87,1699.22 1379.6,1698.71 1381.06,1697.68C1382.53,1696.66 1384.14,1695.41 1385.9,1693.95C1387.65,1692.48 1389.27,1690.95 1390.73,1689.33C1392.2,1687.72 1392.93,1686.33 1392.93,1685.16C1392.93,1683.99 1392.17,1682.38 1390.66,1680.33C1389.14,1678.28 1387.36,1676.37 1385.31,1674.61C1383.26,1672.86 1381.18,1671.54 1379.09,1670.66C1376.99,1669.78 1375.35,1669.92 1374.18,1671.1Z" style="fill:rgb(5,52,81);fill-rule:nonzero;"/>
    </g>
</svg>
