<?xml version="1.0" encoding="UTF-8" standalone="no"?>
<!DOCTYPE svg PUBLIC "-//W3C//DTD SVG 1.1//EN" "http://www.w3.org/Graphics/SVG/1.1/DTD/svg11.dtd">
<svg width="100%" height="100%" viewBox="0 0 42 43" version="1.1" xmlns="http://www.w3.org/2000/svg" xmlns:xlink="http://www.w3.org/1999/xlink" xml:space="preserve" xmlns:serif="http://www.serif.com/" style="fill-rule:evenodd;clip-rule:evenodd;stroke-linejoin:round;stroke-miterlimit:2;">
    <g transform="matrix(1,0,0,1,-14278.2,-130.547)">
        <path d="M14306.3,162.885C14303.4,164.932 14299.9,166.135 14296,166.135C14286.2,166.135 14278.2,158.162 14278.2,148.341C14278.2,138.52 14286.2,130.547 14296,130.547C14305.9,130.547 14313.8,138.52 14313.8,148.341C14313.8,152.92 14312.1,157.098 14309.3,160.253L14318.8,169.748C14319.5,170.52 14319.5,171.774 14318.8,172.547C14318,173.319 14316.7,173.319 14316,172.547L14306.3,162.885ZM14305.6,158.324C14308.2,155.806 14309.9,152.263 14309.9,148.341C14309.9,140.705 14303.7,134.506 14296,134.506C14288.4,134.506 14282.2,140.705 14282.2,148.341C14282.2,155.977 14288.4,162.176 14296,162.176C14299.3,162.176 14302.3,161.053 14304.6,159.174L14305.6,158.324Z" style="fill:rgb(5,52,81);"/>
    </g>
</svg>
