<?xml version="1.0" encoding="UTF-8" standalone="no"?>
<!DOCTYPE svg PUBLIC "-//W3C//DTD SVG 1.1//EN" "http://www.w3.org/Graphics/SVG/1.1/DTD/svg11.dtd">
<svg width="100%" height="100%" viewBox="0 0 51 41" version="1.1" xmlns="http://www.w3.org/2000/svg" xmlns:xlink="http://www.w3.org/1999/xlink" xml:space="preserve" xmlns:serif="http://www.serif.com/" style="fill-rule:evenodd;clip-rule:evenodd;stroke-linejoin:round;stroke-miterlimit:2;">
    <g transform="matrix(1.20765,0,0,1.20765,-1781.33,-187.543)">
        <path d="M1516.71,159.284C1515.95,159.636 1515.15,159.928 1514.33,160.158C1513.5,160.389 1512.65,160.545 1511.78,160.626C1512.68,160.111 1513.45,159.446 1514.1,158.633C1514.75,157.819 1515.24,156.91 1515.57,155.906C1514.73,156.395 1513.85,156.815 1512.94,157.168C1512.03,157.52 1511.09,157.792 1510.12,157.982C1509.36,157.168 1508.43,156.517 1507.35,156.028C1506.26,155.54 1505.11,155.296 1503.89,155.296C1502.72,155.296 1501.61,155.513 1500.55,155.947C1499.52,156.408 1498.62,157.025 1497.85,157.798C1497.07,158.572 1496.47,159.473 1496.04,160.504C1495.58,161.535 1495.35,162.647 1495.35,163.841C1495.35,164.166 1495.37,164.492 1495.41,164.817C1495.45,165.143 1495.49,165.468 1495.55,165.794C1493.79,165.713 1492.08,165.441 1490.42,164.98C1488.74,164.519 1487.15,163.902 1485.66,163.129C1484.17,162.356 1482.77,161.44 1481.47,160.382C1480.17,159.324 1478.99,158.144 1477.93,156.842C1477.58,157.466 1477.3,158.144 1477.1,158.877C1476.89,159.609 1476.79,160.369 1476.79,161.155C1476.79,162.62 1477.14,163.977 1477.83,165.224C1478.52,166.472 1479.43,167.489 1480.57,168.276C1479.9,168.249 1479.22,168.14 1478.56,167.951C1477.89,167.761 1477.28,167.503 1476.71,167.177L1476.71,167.3C1476.71,169.361 1477.37,171.179 1478.68,172.752C1480,174.325 1481.63,175.302 1483.59,175.682C1483.23,175.79 1482.87,175.865 1482.49,175.906C1482.11,175.946 1481.71,175.967 1481.31,175.967C1481.04,175.967 1480.77,175.953 1480.51,175.926C1480.26,175.899 1479.99,175.872 1479.72,175.844C1480.26,177.526 1481.26,178.923 1482.71,180.036C1484.16,181.148 1485.82,181.731 1487.69,181.785C1486.23,182.925 1484.6,183.82 1482.79,184.471C1480.99,185.122 1479.08,185.447 1477.08,185.447C1476.72,185.447 1476.38,185.434 1476.04,185.407C1475.7,185.38 1475.37,185.352 1475.04,185.325C1475.99,185.922 1476.98,186.465 1478.01,186.953C1479.04,187.414 1480.11,187.807 1481.2,188.133C1482.3,188.458 1483.44,188.716 1484.6,188.906C1485.77,189.069 1486.95,189.15 1488.14,189.15C1492.08,189.15 1495.55,188.418 1498.56,186.953C1501.6,185.461 1504.15,183.548 1506.21,181.216C1508.27,178.883 1509.83,176.278 1510.89,173.403C1511.95,170.5 1512.48,167.639 1512.48,164.817C1512.48,164.628 1512.47,164.444 1512.45,164.268C1512.44,164.092 1512.43,163.909 1512.43,163.719C1513.28,163.122 1514.06,162.451 1514.77,161.705C1515.49,160.959 1516.14,160.152 1516.71,159.284Z" style="fill:rgb(5,52,81);fill-rule:nonzero;"/>
    </g>
</svg>
