<?xml version="1.0" standalone="no"?>
<!DOCTYPE svg PUBLIC "-//W3C//DTD SVG 20010904//EN"
 "http://www.w3.org/TR/2001/REC-SVG-20010904/DTD/svg10.dtd">
<svg version="1.0" xmlns="http://www.w3.org/2000/svg"
 width="254.000000pt" height="254.000000pt" viewBox="0 0 254.000000 254.000000"
 preserveAspectRatio="xMidYMid meet">
<metadata>
Created by potrace 1.14, written by Peter Selinger 2001-2017
</metadata>
<g transform="translate(0.000000,254.000000) scale(0.100000,-0.100000)"
fill="#000000" stroke="none">
<path d="M25 2215 c-39 -39 -32 -86 17 -111 72 -37 138 51 83 111 -30 32 -69
32 -100 0z"/>
<path d="M690 2158 c-75 -10 -204 -53 -242 -79 -14 -11 -29 -19 -33 -19 -12 0
-88 -62 -132 -107 -165 -172 -231 -439 -178 -725 6 -31 27 -93 46 -135 10 -24
19 -45 19 -48 0 -11 79 -121 112 -155 121 -128 297 -199 504 -204 242 -6 476
91 542 225 l21 42 0 -209 c0 -115 0 -238 0 -273 l1 -63 38 8 c47 10 861 13
867 3 3 -4 22 -3 42 2 21 4 39 8 41 9 1 0 10 0 19 0 9 0 14 3 11 6 -4 3 9 21
28 40 34 36 54 86 54 139 -1 43 -28 94 -119 222 l-80 112 57 31 c85 45 149
113 191 200 36 75 36 75 36 211 0 133 -1 137 -33 200 -58 116 -136 180 -275
225 l-82 27 -392 2 c-216 0 -396 4 -399 8 -4 4 -9 24 -11 45 -10 97 -149 202
-326 246 -80 20 -236 27 -327 14z m658 -1079 c1 -24 -2 -38 -8 -34 -11 7 -13
35 -4 59 9 23 11 20 12 -25z"/>
<path d="M1360 2140 c-10 -6 -13 -24 -11 -70 l1 -35 160 0 c88 0 161 2 161 5
4 20 4 100 0 101 -25 4 -304 3 -311 -1z"/>
<path d="M32 769 c-12 -5 -22 -12 -23 -16 0 -4 -2 -16 -4 -25 -7 -40 58 -58
81 -23 26 40 -7 81 -54 64z"/>
<path d="M159 759 c-23 -23 -24 -31 -1 -59 14 -18 22 -20 43 -11 31 11 39 28
29 57 -12 30 -47 37 -71 13z"/>
<path d="M301 764 c-26 -19 -27 -46 -1 -69 17 -15 24 -16 46 -7 20 10 25 18
22 43 -4 39 -35 55 -67 33z"/>
<path d="M1163 582 c-22 -3 -23 -7 -23 -122 l0 -118 53 2 52 1 1 118 c1 81 -2
117 -10 118 -6 0 -20 2 -31 3 -11 1 -30 0 -42 -2z"/>
</g>
</svg>
