<?xml version="1.0" encoding="UTF-8" standalone="no"?>
<!DOCTYPE svg PUBLIC "-//W3C//DTD SVG 1.1//EN" "http://www.w3.org/Graphics/SVG/1.1/DTD/svg11.dtd">
<svg width="100%" height="100%" viewBox="0 0 251 251" version="1.1" xmlns="http://www.w3.org/2000/svg" xmlns:xlink="http://www.w3.org/1999/xlink" xml:space="preserve" xmlns:serif="http://www.serif.com/" style="fill-rule:evenodd;clip-rule:evenodd;stroke-linejoin:round;stroke-miterlimit:1.5;">
    <g transform="matrix(6.59308e-17,1.07673,-1.07673,6.59308e-17,1962.06,-13242.3)">
        <path d="M12410.1,1673.34C12411.1,1671.48 12413,1670.31 12415,1670.31C12417.1,1670.31 12419,1671.48 12419.9,1673.34C12426.3,1685.97 12437.1,1707.66 12442.9,1719.31C12443.8,1721.01 12443.7,1723.03 12442.7,1724.65C12441.7,1726.26 12439.9,1727.25 12438,1727.25C12425.9,1727.25 12404.2,1727.25 12392,1727.25C12390.1,1727.25 12388.4,1726.26 12387.4,1724.65C12386.4,1723.03 12386.3,1721.01 12387.1,1719.31C12393,1707.66 12403.8,1685.97 12410.1,1673.34Z" style="fill:none;stroke:white;stroke-width:7.74px;"/>
    </g>
</svg>
