<?xml version="1.0" encoding="UTF-8" standalone="no"?>
<!DOCTYPE svg PUBLIC "-//W3C//DTD SVG 1.1//EN" "http://www.w3.org/Graphics/SVG/1.1/DTD/svg11.dtd">
<svg width="100%" height="100%" viewBox="0 0 286 286" version="1.1" xmlns="http://www.w3.org/2000/svg" xmlns:xlink="http://www.w3.org/1999/xlink" xml:space="preserve" xmlns:serif="http://www.serif.com/" style="fill-rule:evenodd;clip-rule:evenodd;stroke-miterlimit:8;">
    <g transform="matrix(0.607351,0,0,0.607351,-41993.3,-1500.43)">
        <path d="M69365.8,2694.57L69365.8,2626.28L69366.2,2622.32L69367.3,2618.61L69369.1,2615.26L69371.5,2612.35L69374.4,2609.95L69377.8,2608.13L69381.5,2606.97L69385.5,2606.58L69455.1,2606.58L69459,2606.96L69462.7,2608.08L69466.1,2609.89L69469.1,2612.35L69471.5,2615.35L69473.3,2618.74L69474.5,2622.42L69474.8,2626.28L69474.8,2783.94L69474.5,2787.8L69473.3,2791.48L69471.5,2794.87L69469.1,2797.87L69466.1,2800.34L69462.7,2802.15L69459,2803.26L69455.1,2803.65L69297.5,2803.65L69293.6,2803.26L69289.9,2802.15L69286.5,2800.34L69283.5,2797.87L69281.1,2794.87L69279.3,2791.48L69278.1,2787.8L69277.8,2783.94L69277.8,2714.28L69278.2,2710.32L69279.3,2706.6L69281.1,2703.25L69283.5,2700.34L69286.4,2697.94L69289.8,2696.12L69293.5,2694.97L69297.5,2694.57L69365.8,2694.57ZM69464.3,2783.94L69464.3,2626.28C69464.3,2623.85 69463.3,2621.52 69461.6,2619.8C69459.9,2618.08 69457.6,2617.12 69455.1,2617.12L69385.5,2617.12C69380.4,2617.12 69376.3,2621.22 69376.3,2626.28L69376.3,2695.31C69376.3,2697.91 69375.3,2700.4 69373.4,2702.24C69371.6,2704.08 69369.1,2705.11 69366.5,2705.11L69297.5,2705.11C69292.4,2705.11 69288.3,2709.22 69288.3,2714.28L69288.3,2783.94C69288.3,2786.37 69289.3,2788.7 69291,2790.42C69292.7,2792.14 69295,2793.11 69297.5,2793.11L69455.1,2793.11C69457.6,2793.11 69459.9,2792.14 69461.6,2790.42C69463.3,2788.7 69464.3,2786.37 69464.3,2783.94Z" style="fill:rgb(138,185,214);"/>
    </g>
    <g transform="matrix(0.607351,0,0,0.607351,-41993.3,-1500.43)">
        <path d="M69376.5,2793.11L69376.5,2729.07" style="fill:none;stroke:rgb(138,185,214);stroke-width:10.54px;"/>
    </g>
    <g transform="matrix(-1.11569e-16,-0.607351,0.607351,-1.11569e-16,-1500.43,42278.4)">
        <path d="M69376.5,2793.11L69376.5,2729.07" style="fill:none;stroke:rgb(138,185,214);stroke-width:10.54px;"/>
    </g>
</svg>
