<?xml version="1.0" encoding="UTF-8" standalone="no"?>
<!DOCTYPE svg PUBLIC "-//W3C//DTD SVG 1.1//EN" "http://www.w3.org/Graphics/SVG/1.1/DTD/svg11.dtd">
<svg width="100%" height="100%" viewBox="0 0 286 286" version="1.1" xmlns="http://www.w3.org/2000/svg" xmlns:xlink="http://www.w3.org/1999/xlink" xml:space="preserve" xmlns:serif="http://www.serif.com/" style="fill-rule:evenodd;clip-rule:evenodd;stroke-linecap:round;stroke-miterlimit:8;">
    <g transform="matrix(4.44143,0,0,4.44143,-460233,-177290)">
        <path d="M103669,39933.7C103670,39933.7 103671,39934.3 103671,39935L103671,39963.8C103671,39964.5 103670,39965.1 103669,39965.1L103641,39965.1C103640,39965.1 103639,39964.5 103639,39963.8L103639,39935C103639,39934.3 103640,39933.7 103641,39933.7C103643,39933.7 103664,39933.7 103669,39933.7Z" style="fill:none;stroke:rgb(138,185,214);stroke-width:1.44px;"/>
    </g>
    <g transform="matrix(-3.9995e-16,-0.607351,2.17722,-1.11569e-16,-5868.99,42236.5)">
        <path d="M69376.5,2793.11L69376.5,2729.07" style="fill:none;stroke:rgb(138,185,214);stroke-width:4.01px;stroke-linecap:butt;"/>
    </g>
    <g transform="matrix(-0.429462,-0.429462,0.720014,-0.720014,27959.2,31934.3)">
        <path d="M69376.5,2793.11L69376.5,2729.07C69376.5,2729.07 69423.6,2729.07 69423.6,2729.07" style="fill:none;stroke:rgb(138,185,214);stroke-width:7.64px;stroke-linecap:butt;"/>
    </g>
</svg>
