<?xml version="1.0" encoding="UTF-8" standalone="no"?>
<!DOCTYPE svg PUBLIC "-//W3C//DTD SVG 1.1//EN" "http://www.w3.org/Graphics/SVG/1.1/DTD/svg11.dtd">
<svg width="100%" height="100%" viewBox="0 0 286 286" version="1.1" xmlns="http://www.w3.org/2000/svg" xmlns:xlink="http://www.w3.org/1999/xlink" xml:space="preserve" xmlns:serif="http://www.serif.com/" style="fill-rule:evenodd;clip-rule:evenodd;stroke-linejoin:round;stroke-miterlimit:2;">
    <g transform="matrix(1.1693,2.79888e-17,-2.79888e-17,-0.940755,-117597,37764.3)">
        <path d="M100688,39924.8C100678,39945.4 100653,39998.3 100653,40024C100653,40050.8 100670,40072.5 100692,40072.5C100714,40072.5 100731,40050.8 100731,40024C100731,39998.3 100706,39945.4 100696,39924.8C100695,39923 100694,39921.9 100692,39921.9C100690,39921.9 100689,39923 100688,39924.8ZM100692,39929.3C100698,39941.8 100709,39964.8 100717,39986.7C100722,40000.8 100726,40014.4 100726,40024C100726,40047 100710,40065.7 100692,40065.7C100673,40065.7 100658,40047 100658,40024C100658,40014.4 100662,40000.8 100667,39986.7C100675,39964.8 100686,39941.8 100692,39929.3Z" style="fill:rgb(138,185,214);"/>
    </g>
    <g transform="matrix(1.40178,0,0,1.40178,-141040,-55927.2)">
        <path d="M100717,39965.4C100725,39965.4 100731,39972 100731,39980.1C100731,39988.1 100725,39994.7 100717,39994.7C100709,39994.7 100702,39988.1 100702,39980.1C100702,39972 100709,39965.4 100717,39965.4ZM100717,39970C100711,39970 100707,39974.5 100707,39980.1C100707,39985.6 100711,39990.1 100717,39990.1C100722,39990.1 100727,39985.6 100727,39980.1C100727,39974.5 100722,39970 100717,39970Z" style="fill:rgb(138,185,214);"/>
    </g>
</svg>
