<?xml version="1.0" encoding="UTF-8" standalone="no"?>
<!DOCTYPE svg PUBLIC "-//W3C//DTD SVG 1.1//EN" "http://www.w3.org/Graphics/SVG/1.1/DTD/svg11.dtd">
<svg width="100%" height="100%" viewBox="0 0 254 254" version="1.1" xmlns="http://www.w3.org/2000/svg" xmlns:xlink="http://www.w3.org/1999/xlink" xml:space="preserve" xmlns:serif="http://www.serif.com/" style="fill-rule:evenodd;clip-rule:evenodd;stroke-linejoin:round;stroke-miterlimit:1.5;">
    <g transform="matrix(7.64011e-17,1.24773,-1.24773,7.64011e-17,2253.18,-15363.6)">
        <path d="M12410.8,1672C12411.6,1670.39 12413.2,1669.38 12415,1669.38C12416.8,1669.38 12418.5,1670.39 12419.3,1672C12425.6,1684.75 12437.6,1708.66 12443.5,1720.4C12444.2,1721.87 12444.1,1723.61 12443.3,1725C12442.4,1726.4 12440.9,1727.25 12439.2,1727.25C12427,1727.25 12403.1,1727.25 12390.8,1727.25C12389.2,1727.25 12387.7,1726.4 12386.8,1725C12385.9,1723.61 12385.9,1721.87 12386.6,1720.4C12392.5,1708.66 12404.4,1684.75 12410.8,1672Z" style="fill:none;stroke:white;stroke-width:6.68px;"/>
    </g>
</svg>
