<?xml version="1.0" encoding="UTF-8" standalone="no"?>
<!DOCTYPE svg PUBLIC "-//W3C//DTD SVG 1.1//EN" "http://www.w3.org/Graphics/SVG/1.1/DTD/svg11.dtd">
<svg width="100%" height="100%" viewBox="0 0 286 286" version="1.1" xmlns="http://www.w3.org/2000/svg" xmlns:xlink="http://www.w3.org/1999/xlink" xml:space="preserve" xmlns:serif="http://www.serif.com/" style="fill-rule:evenodd;clip-rule:evenodd;stroke-linecap:round;stroke-miterlimit:8;">
    <g transform="matrix(0.893992,-0.893992,0.893992,0.893992,-127079,55841.2)">
        <path d="M102319,40031.8C102319,40031.8 102322,40040.4 102325,40047.5C102325,40049.1 102325,40050.9 102324,40052.2C102323,40053.4 102321,40053.8 102319,40053.2C102306,40048.1 102281,40038.8 102274,40036.1C102273,40035.7 102272,40034.7 102271,40033.4C102269,40026.3 102259,40001.9 102254,39988.4C102254,39986.7 102254,39984.9 102255,39983.7C102257,39982.4 102258,39982 102260,39982.7C102267,39985.3 102275,39988.4 102275,39988.4" style="fill:none;stroke:rgb(138,185,214);stroke-width:5.06px;"/>
    </g>
    <g transform="matrix(0.893992,-0.893992,0.893992,0.893992,-127079,55812.9)">
        <path d="M102319,40032.1C102319,40032.1 102322,40040.5 102325,40047.5C102325,40049.1 102325,40050.9 102324,40052.2C102323,40053.4 102321,40053.8 102319,40053.2C102306,40048.1 102281,40038.8 102274,40036.1C102273,40035.7 102272,40034.7 102271,40033.4C102269,40026.3 102259,40001.9 102254,39988.4C102254,39986.7 102254,39984.9 102255,39983.7C102257,39982.4 102258,39982 102260,39982.7C102267,39985.3 102275,39988.4 102275,39988.4" style="fill:none;stroke:rgb(138,185,214);stroke-width:5.06px;"/>
    </g>
    <g transform="matrix(0.893992,-0.893992,0.893992,0.893992,-127079,55784.6)">
        <path d="M102305,39999.7C102306,40000.2 102307,40001.1 102308,40002.3C102310,40009.2 102320,40033.9 102325,40047.5C102325,40049.1 102325,40050.9 102324,40052.2C102323,40053.4 102321,40053.8 102319,40053.2C102306,40048.1 102281,40038.8 102274,40036.1C102273,40035.7 102272,40034.7 102271,40033.4C102269,40026.3 102259,40001.9 102254,39988.4C102254,39986.7 102254,39984.9 102255,39983.7C102257,39982.4 102258,39982 102260,39982.7C102274,39987.8 102298,39997.1 102305,39999.7Z" style="fill:none;stroke:rgb(138,185,214);stroke-width:5.06px;"/>
    </g>
</svg>
