<?xml version="1.0" encoding="UTF-8" standalone="no"?>
<!DOCTYPE svg PUBLIC "-//W3C//DTD SVG 1.1//EN" "http://www.w3.org/Graphics/SVG/1.1/DTD/svg11.dtd">
<svg width="100%" height="100%" viewBox="0 0 286 286" version="1.1" xmlns="http://www.w3.org/2000/svg" xmlns:xlink="http://www.w3.org/1999/xlink" xml:space="preserve" xmlns:serif="http://www.serif.com/" style="fill-rule:evenodd;clip-rule:evenodd;stroke-linecap:round;stroke-miterlimit:8;">
    <g transform="matrix(4.44143,0,0,4.44143,-460233,-177290)">
        <path d="M103669,39933.7C103670,39933.7 103671,39934.4 103671,39935.2L103671,39963.6C103671,39964.4 103670,39965.1 103669,39965.1L103641,39965.1C103640,39965.1 103639,39964.4 103639,39963.6L103639,39935.2C103639,39934.4 103640,39933.7 103641,39933.7L103669,39933.7Z" style="fill:none;stroke:rgb(138,185,214);stroke-width:1.44px;"/>
    </g>
    <g transform="matrix(-0.226522,-0.226522,-0.226522,0.226522,3367.63,2541.98)">
        <path d="M12350.3,1727.25L12415,1663.53L12479.8,1727.25" style="fill:none;stroke:rgb(138,185,214);stroke-width:19.98px;stroke-linecap:butt;stroke-miterlimit:1.5;"/>
    </g>
    <g transform="matrix(-0.226522,-0.226522,0.226522,-0.226522,2541.98,3367.63)">
        <path d="M12350.3,1727.25L12415,1663.53L12479.8,1727.25" style="fill:none;stroke:rgb(138,185,214);stroke-width:19.98px;stroke-linecap:butt;stroke-miterlimit:1.5;"/>
    </g>
    <g transform="matrix(1.25447,-1.25447,0.657997,0.657997,-62636.9,26738.6)">
        <path d="M35651.7,27495.1L35628.1,27495.1" style="fill:none;stroke:rgb(138,185,214);stroke-width:4.52px;stroke-linecap:butt;"/>
    </g>
    <g transform="matrix(-1.25447,1.25447,0.657997,0.657997,26738.6,-62636.9)">
        <path d="M35651.7,27495.1L35628.1,27495.1" style="fill:none;stroke:rgb(138,185,214);stroke-width:4.52px;stroke-linecap:butt;"/>
    </g>
</svg>
