<?xml version="1.0" encoding="UTF-8" standalone="no"?>
<!DOCTYPE svg PUBLIC "-//W3C//DTD SVG 1.1//EN" "http://www.w3.org/Graphics/SVG/1.1/DTD/svg11.dtd">
<svg width="100%" height="100%" viewBox="0 0 441 402" version="1.1" xmlns="http://www.w3.org/2000/svg" xmlns:xlink="http://www.w3.org/1999/xlink" xml:space="preserve" xmlns:serif="http://www.serif.com/" style="fill-rule:evenodd;clip-rule:evenodd;stroke-linecap:round;stroke-miterlimit:8;">
    <g transform="matrix(2.33701,-3.55637e-30,5.62525e-30,7.39307,-8627.35,-5617.8)">
        <g transform="matrix(2.36857,2.8742e-33,0,0.748725,2890.6,680.339)">
            <path d="M366.81,170.349C366.284,169.954 365.805,169.672 365.29,169.489C364.778,169.307 364.25,169.209 363.692,169.187C362.583,169.135 361.372,169.344 360.212,169.624C359.052,169.909 357.951,170.256 357.126,170.538C356.306,170.81 355.771,171.023 355.771,171.023C355.771,171.023 356.295,171.327 357.137,171.687C357.979,172.048 359.146,172.456 360.416,172.676C361.68,172.899 363.059,172.925 364.262,172.58C365.456,172.243 366.473,171.509 366.81,170.349Z" style="fill:rgb(155,149,118);fill-rule:nonzero;"/>
        </g>
        <g transform="matrix(2.36857,2.8742e-33,0,0.748725,2890.6,680.339)">
            <path d="M363.267,165.206C363.719,166.22 364.374,167.209 365.234,167.854C365.664,168.173 366.14,168.416 366.655,168.514C367.167,168.616 367.718,168.588 368.251,168.364C368.28,167.15 367.948,166.192 367.43,165.35C366.909,164.516 366.17,163.795 365.408,163.173C364.644,162.554 363.865,162.037 363.275,161.664C362.686,161.297 362.284,161.08 362.284,161.08C362.284,161.08 362.29,161.21 362.31,161.44C362.332,161.664 362.37,161.989 362.434,162.38C362.564,163.154 362.814,164.196 363.267,165.206Z" style="fill:rgb(155,149,118);fill-rule:nonzero;"/>
        </g>
        <g transform="matrix(2.36857,2.8742e-33,0,0.748725,2890.6,680.339)">
            <path d="M354.928,167.912C356.089,167.856 357.117,167.409 357.836,166.44C357.261,165.41 356.386,164.852 355.339,164.529C354.293,164.209 353.072,164.122 351.871,164.083C350.672,164.049 349.486,164.075 348.592,164.081C347.678,164.096 347.103,164.107 347.103,164.107C347.103,164.107 347.214,164.229 347.421,164.431C347.629,164.622 347.929,164.906 348.307,165.215C349.06,165.838 350.128,166.562 351.305,167.094C352.481,167.63 353.768,167.967 354.928,167.912Z" style="fill:rgb(155,149,118);fill-rule:nonzero;"/>
        </g>
        <g transform="matrix(2.36857,2.8742e-33,0,0.748725,2890.6,680.339)">
            <path d="M357.136,163.33C357.794,164.164 358.716,164.715 359.858,164.657C360.324,163.542 360.244,162.478 359.931,161.499C359.615,160.524 359.057,159.629 358.492,158.849C357.927,158.071 357.349,157.407 356.926,156.929C356.718,156.688 356.54,156.497 356.415,156.368C356.297,156.234 356.223,156.164 356.223,156.164C356.223,156.164 356.184,156.284 356.128,156.497C356.07,156.714 356.006,157.022 355.945,157.4C355.821,158.162 355.767,159.201 355.927,160.293C356.087,161.377 356.478,162.491 357.136,163.33Z" style="fill:rgb(155,149,118);fill-rule:nonzero;"/>
        </g>
        <g transform="matrix(2.36857,2.8742e-33,0,0.748725,2890.6,680.339)">
            <path d="M342.927,155.007C342.102,154.748 341.571,154.596 341.571,154.596C341.571,154.596 341.621,154.733 341.726,154.961C341.835,155.187 342.002,155.508 342.214,155.886C342.426,156.264 342.686,156.703 342.986,157.163C343.137,157.394 343.299,157.628 343.468,157.863L343.601,158.045L343.77,158.267C343.884,158.415 344.002,158.562 344.119,158.706C345.081,159.852 346.269,160.728 347.435,161.095C348.604,161.47 349.736,161.347 350.702,160.623C350.432,159.463 349.779,158.671 348.901,157.984C348.686,157.809 348.445,157.65 348.205,157.485C347.965,157.32 347.706,157.164 347.444,157.009C347.186,156.846 346.918,156.69 346.641,156.534C346.383,156.392 346.126,156.264 345.864,156.14C344.818,155.647 343.743,155.269 342.927,155.007Z" style="fill:rgb(155,149,118);fill-rule:nonzero;"/>
        </g>
        <g transform="matrix(2.36857,2.8742e-33,0,0.748725,2890.6,680.339)">
            <path d="M350.985,157.066C351.296,158.067 352.016,158.89 353.116,159.144C353.88,158.208 354.124,157.185 354.186,156.218C354.239,155.25 354.115,154.333 354.01,153.564C353.975,153.237 353.844,152.685 353.722,152.257C353.6,151.814 353.464,151.414 353.339,151.08C353.216,150.745 353.097,150.472 353.018,150.283C352.947,150.091 352.902,149.983 352.902,149.983C352.902,149.983 352.824,150.091 352.698,150.285C352.568,150.485 352.408,150.763 352.225,151.112C351.861,151.807 351.423,152.78 351.12,153.858C351.042,154.129 350.975,154.403 350.918,154.685C350.867,154.944 350.828,155.209 350.805,155.482C350.788,155.75 350.8,156.017 350.825,156.288C350.851,156.555 350.912,156.812 350.985,157.066Z" style="fill:rgb(155,149,118);fill-rule:nonzero;"/>
        </g>
        <g transform="matrix(2.36857,2.8742e-33,0,0.748725,2890.6,680.339)">
            <path d="M341.665,150.939C341.854,151.173 342.077,151.379 342.302,151.569C342.527,151.76 342.759,151.936 342.998,152.088C343.957,152.704 345.02,152.963 346.178,152.624C346.275,152.046 346.231,151.518 346.08,151.027C346.003,150.784 345.899,150.548 345.77,150.322C345.644,150.094 345.485,149.879 345.335,149.661C344.714,148.797 343.756,148.048 342.788,147.383C341.848,146.708 340.859,146.132 340.103,145.711C339.329,145.298 338.842,145.039 338.842,145.039C338.842,145.039 338.865,145.183 338.926,145.433C338.995,145.684 339.1,146.036 339.243,146.456C339.53,147.298 339.929,148.426 340.596,149.455C340.916,149.974 341.274,150.485 341.665,150.939Z" style="fill:rgb(155,149,118);fill-rule:nonzero;"/>
        </g>
        <g transform="matrix(2.36857,2.8742e-33,0,0.748725,2890.6,680.339)">
            <path d="M347.922,150.487C348.148,150.941 348.478,151.345 348.939,151.668C349.988,151.065 350.588,150.165 350.906,149.186C350.988,148.942 351.049,148.691 351.095,148.437C351.12,148.311 351.139,148.185 351.154,148.058C351.173,147.93 351.191,147.8 351.212,147.67C351.279,147.153 351.295,146.636 351.279,146.138C351.214,145.148 351.153,144.214 351.027,143.537C350.968,143.196 350.905,142.918 350.865,142.724C350.832,142.531 350.81,142.422 350.81,142.422C350.81,142.422 350.713,142.511 350.552,142.674C350.385,142.839 350.176,143.074 349.93,143.376C349.439,143.979 348.827,144.838 348.327,145.837C347.858,146.829 347.551,147.946 347.558,149.006C347.555,149.273 347.599,149.527 347.661,149.774C347.722,150.024 347.809,150.261 347.922,150.487Z" style="fill:rgb(155,149,118);fill-rule:nonzero;"/>
        </g>
        <g transform="matrix(2.36857,2.8742e-33,0,0.748725,2890.6,680.339)">
            <path d="M339.651,141.404C339.798,141.673 339.951,141.931 340.129,142.168C340.313,142.403 340.509,142.624 340.714,142.822C341.543,143.625 342.538,144.084 343.737,143.969C343.943,143.421 344.003,142.898 343.945,142.39C343.917,142.136 343.86,141.886 343.778,141.64C343.703,141.393 343.619,141.147 343.505,140.906C343.284,140.42 342.978,139.948 342.621,139.484C342.439,139.256 342.256,139.027 342.076,138.801C341.893,138.574 341.7,138.354 341.505,138.139C340.721,137.273 339.852,136.478 339.248,135.887C338.628,135.3 338.189,134.925 338.189,134.925C338.189,134.925 338.172,135.524 338.225,136.426C338.257,136.877 338.348,137.401 338.45,137.961C338.505,138.241 338.566,138.53 338.636,138.823C338.706,139.116 338.779,139.414 338.891,139.705C339.105,140.291 339.355,140.869 339.651,141.404Z" style="fill:rgb(155,149,118);fill-rule:nonzero;"/>
        </g>
        <g transform="matrix(2.36857,2.8742e-33,0,0.748725,2890.6,680.339)">
            <path d="M346.598,143.328C347.743,142.933 348.507,142.173 349.01,141.302C349.136,141.082 349.244,140.858 349.34,140.626C349.452,140.392 349.548,140.157 349.633,139.918C349.801,139.442 349.919,138.956 350.001,138.484C350.09,138.013 350.188,137.555 350.234,137.133C350.26,136.918 350.28,136.716 350.293,136.523C350.305,136.332 350.312,136.152 350.336,135.987C350.408,135.329 350.399,134.896 350.399,134.896C350.399,134.896 349.956,135.14 349.322,135.596C349.164,135.711 348.994,135.839 348.816,135.978C348.635,136.121 348.452,136.275 348.279,136.441C347.925,136.775 347.561,137.159 347.216,137.583C347.045,137.796 346.878,138.017 346.72,138.248C346.641,138.363 346.564,138.482 346.493,138.599C346.427,138.719 346.364,138.839 346.305,138.962C346.066,139.449 345.883,139.963 345.784,140.478C345.737,140.733 345.701,140.991 345.709,141.243C345.723,141.495 345.762,141.745 345.827,141.986C345.964,142.472 346.21,142.93 346.598,143.328Z" style="fill:rgb(155,149,118);fill-rule:nonzero;"/>
        </g>
        <g transform="matrix(2.36857,2.8742e-33,0,0.748725,2890.6,680.339)">
            <path d="M342.438,128.85C342.17,128.335 341.88,127.831 341.6,127.366C341.31,126.895 341.05,126.469 340.83,126.109C340.379,125.385 340.051,124.914 340.051,124.914C340.051,124.914 339.881,125.483 339.701,126.367C339.634,126.815 339.571,127.342 339.531,127.911C339.508,128.196 339.492,128.489 339.484,128.791C339.486,129.095 339.505,129.405 339.531,129.716C339.584,130.339 339.662,130.965 339.822,131.558C340,132.153 340.229,132.714 340.522,133.2C341.091,134.182 342.01,134.862 343.198,135.031C343.354,134.788 343.472,134.545 343.558,134.299C343.642,134.053 343.724,133.804 343.759,133.556C343.841,133.054 343.803,132.538 343.684,132.016C343.58,131.495 343.421,130.965 343.195,130.433C342.971,129.901 342.693,129.366 342.438,128.85Z" style="fill:rgb(155,149,118);fill-rule:nonzero;"/>
        </g>
        <g transform="matrix(2.36857,2.8742e-33,0,0.748725,2890.6,680.339)">
            <path d="M348.909,133.424C349.27,133.072 349.574,132.676 349.83,132.264C350.113,131.853 350.361,131.43 350.56,131.006C350.665,130.794 350.745,130.583 350.842,130.379C350.94,130.176 351.03,129.975 351.109,129.781C351.27,129.395 351.384,129.034 351.492,128.726C351.728,128.115 351.832,127.701 351.832,127.701C351.832,127.701 351.34,127.82 350.611,128.094C349.864,128.363 348.966,128.817 348.073,129.451C347.855,129.61 347.624,129.779 347.427,129.964C347.229,130.146 347.038,130.34 346.861,130.542C346.504,130.95 346.18,131.393 345.965,131.862C345.766,132.334 345.651,132.829 345.653,133.326C345.657,133.572 345.675,133.821 345.754,134.067C345.834,134.314 345.948,134.557 346.098,134.794C347.304,134.679 348.171,134.127 348.909,133.424Z" style="fill:rgb(155,149,118);fill-rule:nonzero;"/>
        </g>
        <g transform="matrix(2.36857,2.8742e-33,0,0.748725,2890.6,680.339)">
            <path d="M345.398,125.685C345.559,125.476 345.686,125.255 345.786,125.025C345.887,124.794 345.96,124.553 346.01,124.301C346.059,124.052 346.08,123.791 346.105,123.532C346.145,123.007 346.106,122.451 346.019,121.88C345.933,121.311 345.834,120.746 345.69,120.175C345.397,119.036 345.082,117.964 344.801,117.147C344.52,116.33 344.323,115.807 344.323,115.807C344.323,115.807 344.245,115.929 344.122,116.156C344.005,116.384 343.842,116.713 343.66,117.117C343.278,117.916 342.895,119.06 342.654,120.259C342.555,120.868 342.492,121.495 342.49,122.101C342.483,122.401 342.516,122.709 342.56,123.002C342.604,123.296 342.665,123.582 342.746,123.854C342.914,124.401 343.14,124.888 343.502,125.307C343.858,125.724 344.308,126.061 344.865,126.295C345.078,126.102 345.253,125.9 345.398,125.685Z" style="fill:rgb(155,149,118);fill-rule:nonzero;"/>
        </g>
        <g transform="matrix(2.36857,2.8742e-33,0,0.748725,2890.6,680.339)">
            <path d="M354.881,121.348C354.984,121.187 355.038,121.094 355.038,121.094C355.038,121.094 354.909,121.094 354.682,121.104C354.451,121.111 354.138,121.135 353.758,121.183C353.377,121.232 352.93,121.304 352.447,121.413C352.209,121.469 351.952,121.53 351.706,121.606C351.461,121.686 351.212,121.771 350.963,121.873C350.465,122.073 349.951,122.312 349.502,122.612C349.06,122.914 348.654,123.265 348.318,123.658C348.148,123.852 348.017,124.067 347.904,124.288C347.792,124.51 347.704,124.742 347.643,124.979C347.581,125.218 347.549,125.464 347.55,125.717C347.563,125.974 347.612,126.235 347.696,126.502C348.29,126.601 348.84,126.575 349.344,126.462C349.843,126.349 350.333,126.161 350.763,125.911C350.98,125.789 351.187,125.652 351.382,125.502C351.481,125.431 351.575,125.351 351.669,125.272C351.764,125.196 351.862,125.116 351.956,125.036C352.333,124.712 352.667,124.358 352.964,123.999C353.284,123.646 353.57,123.291 353.81,122.95C353.871,122.866 353.93,122.779 353.986,122.698C354.046,122.616 354.103,122.538 354.161,122.46C354.273,122.305 354.375,122.158 354.466,122.021C354.648,121.749 354.784,121.513 354.881,121.348Z" style="fill:rgb(155,149,118);fill-rule:nonzero;"/>
        </g>
        <g transform="matrix(2.36857,2.8742e-33,0,0.748725,2890.6,680.339)">
            <path d="M348.656,118.326C349.171,118.066 349.554,117.722 349.849,117.318C350.159,116.927 350.371,116.463 350.515,115.955C350.826,114.957 350.876,113.767 350.865,112.616C350.859,112.327 350.845,112.036 350.829,111.754C350.819,111.474 350.802,111.202 350.783,110.937C350.743,110.405 350.691,109.91 350.642,109.486C350.555,108.65 350.462,108.09 350.462,108.09C350.462,108.09 350.367,108.2 350.199,108.387C350.033,108.576 349.8,108.848 349.544,109.202C349.288,109.554 348.986,109.964 348.707,110.444C348.432,110.92 348.141,111.437 347.905,111.993C347.675,112.555 347.466,113.131 347.337,113.719C347.213,114.312 347.15,114.899 347.178,115.459C347.25,116.589 347.694,117.603 348.656,118.326Z" style="fill:rgb(155,149,118);fill-rule:nonzero;"/>
        </g>
        <g transform="matrix(2.36857,2.8742e-33,0,0.748725,2890.6,680.339)">
            <path d="M357.057,117.72C357.443,117.438 357.811,117.153 358.127,116.869C358.449,116.587 358.745,116.326 358.981,116.093C359.214,115.853 359.416,115.663 359.551,115.524C359.684,115.385 359.755,115.303 359.755,115.303C359.755,115.303 359.255,115.192 358.476,115.114C358.089,115.077 357.64,115.058 357.145,115.06C356.651,115.062 356.116,115.096 355.588,115.181C354.513,115.338 353.431,115.703 352.606,116.317C352.205,116.632 351.866,117.002 351.63,117.432C351.408,117.87 351.295,118.372 351.321,118.921C352.434,119.406 353.482,119.364 354.44,119.086C354.928,118.948 355.388,118.748 355.817,118.507C356.257,118.274 356.678,118.005 357.057,117.72Z" style="fill:rgb(155,149,118);fill-rule:nonzero;"/>
        </g>
        <g transform="matrix(2.36857,2.8742e-33,0,0.748725,2890.6,680.339)">
            <path d="M354.917,163.154C358.079,165.775 361.932,167.569 365.716,169.098C368.811,170.347 372.784,172.391 376.828,174.296C373.189,175.428 369.603,176.353 366.719,176.837C366.343,176.9 368.284,178.874 368.646,178.764C371.994,177.756 375.395,176.533 378.742,175.182C382.402,176.844 386.016,178.269 388.993,178.768C389.367,178.829 390.531,176.837 390.156,176.774C387.335,176.303 384.063,175.464 380.652,174.396C386.27,172.037 391.675,169.368 396.352,166.824C401.429,164.059 405.237,160.135 407.743,154.917C410.062,150.087 411.7,144.744 411.94,139.379C412.273,131.945 409.779,124.655 405.91,118.391C404.776,116.556 403.508,114.727 402.104,113.029C402.226,112.555 402.241,112.097 402.161,111.665C402.067,111.155 401.864,110.663 401.562,110.221C400.972,109.321 400.018,108.596 399.042,108.055C398.057,107.517 397.037,107.18 396.274,106.997C395.891,106.902 395.574,106.85 395.356,106.817C395.245,106.806 395.157,106.795 395.102,106.791C395.05,106.789 395.019,106.789 395.019,106.789C395.019,106.789 395.031,106.813 395.053,106.865C395.08,106.917 395.116,106.993 395.165,107.091C395.265,107.286 395.409,107.566 395.591,107.903C395.952,108.574 396.448,109.46 397.034,110.32C397.323,110.757 397.652,111.17 397.99,111.563C398.161,111.758 398.34,111.941 398.532,112.11C398.716,112.284 398.909,112.445 399.111,112.586C399.524,112.866 399.955,113.094 400.441,113.218C400.809,113.309 401.195,113.35 401.611,113.324C404.31,116.515 406.519,120.222 408.199,123.941C410.34,128.678 411.484,133.845 411.36,139.047C411.226,144.72 409.334,150.476 406.79,155.515C404.81,159.437 401.927,162.635 398.243,165.017C394.943,167.15 391.326,168.749 387.732,170.304C385.038,171.472 381.84,172.667 378.598,173.731C371.653,171.409 364.398,168.275 359.368,165.434C356.739,163.951 354.358,162.133 352.389,159.835C350.422,157.539 349.004,154.818 347.865,152.035C345.705,146.758 344.337,141.295 344.673,135.561C345.064,128.876 347.69,122.479 351.35,116.936C352.288,115.514 353.304,114.098 354.413,112.762C354.813,112.781 355.186,112.744 355.543,112.655C356.028,112.531 356.458,112.303 356.871,112.025C357.074,111.882 357.267,111.721 357.452,111.548C357.641,111.378 357.821,111.194 357.993,111C358.332,110.605 358.66,110.194 358.95,109.756C359.533,108.896 360.031,108.009 360.392,107.338C360.573,107.002 360.718,106.723 360.816,106.526C360.866,106.428 360.903,106.354 360.93,106.3C360.951,106.252 360.961,106.226 360.961,106.226L360.879,106.226C360.823,106.231 360.739,106.242 360.628,106.255C360.408,106.285 360.088,106.341 359.708,106.433C358.946,106.617 357.924,106.954 356.942,107.49C355.966,108.033 355.012,108.755 354.422,109.658C354.118,110.099 353.914,110.59 353.822,111.102C353.742,111.526 353.757,111.975 353.873,112.438C351.293,115.507 349.156,119.041 347.5,122.583C345.453,126.958 344.221,131.691 344.034,136.525C343.822,142.075 345.331,147.398 347.417,152.489C349.093,156.583 351.487,160.31 354.917,163.154Z" style="fill:rgb(155,149,118);fill-rule:nonzero;"/>
        </g>
        <g transform="matrix(2.36857,2.8742e-33,0,0.748725,2890.6,680.339)">
            <path d="M395.567,173.238C396.838,173.021 398.004,172.613 398.846,172.252C399.689,171.89 400.213,171.588 400.213,171.588C400.213,171.588 399.676,171.375 398.856,171.101C398.031,170.821 396.931,170.473 395.77,170.187C394.608,169.908 393.401,169.7 392.291,169.75C391.732,169.772 391.204,169.869 390.692,170.05C390.178,170.236 389.699,170.515 389.172,170.912C389.511,172.07 390.528,172.804 391.722,173.141C392.922,173.488 394.302,173.46 395.567,173.238Z" style="fill:rgb(155,149,118);fill-rule:nonzero;"/>
        </g>
        <g transform="matrix(2.36857,2.8742e-33,0,0.748725,2890.6,680.339)">
            <path d="M389.329,169.077C389.842,168.979 390.319,168.738 390.749,168.419C391.608,167.771 392.264,166.783 392.715,165.771C393.168,164.759 393.417,163.718 393.549,162.941C393.613,162.552 393.65,162.228 393.673,162.003C393.692,161.775 393.698,161.644 393.698,161.644C393.698,161.644 393.295,161.859 392.707,162.228C392.119,162.598 391.339,163.117 390.576,163.736C389.813,164.357 389.074,165.08 388.551,165.914C388.033,166.755 387.703,167.713 387.734,168.925C388.263,169.153 388.816,169.179 389.329,169.077Z" style="fill:rgb(155,149,118);fill-rule:nonzero;"/>
        </g>
        <g transform="matrix(2.36857,2.8742e-33,0,0.748725,2890.6,680.339)">
            <path d="M404.112,164.648C402.911,164.687 401.689,164.772 400.645,165.093C399.597,165.417 398.721,165.975 398.147,167.002C398.865,167.973 399.893,168.421 401.055,168.475C402.215,168.531 403.5,168.193 404.677,167.66C405.854,167.126 406.922,166.401 407.674,165.777C408.053,165.473 408.354,165.187 408.563,164.993C408.769,164.791 408.882,164.67 408.882,164.67C408.882,164.67 408.306,164.659 407.39,164.644C406.498,164.639 405.311,164.613 404.112,164.648Z" style="fill:rgb(155,149,118);fill-rule:nonzero;"/>
        </g>
        <g transform="matrix(2.36857,2.8742e-33,0,0.748725,2890.6,680.339)">
            <path d="M396.125,165.219C397.266,165.28 398.189,164.73 398.846,163.892C399.504,163.056 399.896,161.942 400.055,160.856C400.217,159.766 400.162,158.723 400.036,157.963C399.977,157.583 399.913,157.279 399.853,157.061C399.797,156.846 399.759,156.727 399.759,156.727C399.759,156.727 399.687,156.798 399.567,156.929C399.441,157.061 399.264,157.252 399.057,157.491C398.633,157.971 398.056,158.634 397.49,159.413C396.926,160.193 396.368,161.086 396.052,162.063C395.74,163.041 395.659,164.105 396.125,165.219Z" style="fill:rgb(155,149,118);fill-rule:nonzero;"/>
        </g>
        <g transform="matrix(2.36857,2.8742e-33,0,0.748725,2890.6,680.339)">
            <path d="M411.863,159.27C411.982,159.125 412.1,158.977 412.214,158.831L412.382,158.606L412.514,158.427C412.685,158.191 412.845,157.956 412.996,157.726C413.296,157.268 413.556,156.829 413.77,156.451C413.981,156.071 414.146,155.75 414.255,155.526C414.363,155.298 414.412,155.159 414.412,155.159C414.412,155.159 413.88,155.315 413.056,155.571C412.24,155.832 411.164,156.212 410.119,156.703C409.856,156.827 409.599,156.955 409.341,157.098C409.066,157.253 408.796,157.411 408.539,157.57C408.277,157.73 408.019,157.884 407.779,158.05C407.538,158.213 407.296,158.373 407.083,158.549C406.203,159.235 405.55,160.024 405.281,161.186C406.247,161.911 407.38,162.035 408.547,161.659C409.714,161.292 410.902,160.415 411.863,159.27Z" style="fill:rgb(155,149,118);fill-rule:nonzero;"/>
        </g>
        <g transform="matrix(2.36857,2.8742e-33,0,0.748725,2890.6,680.339)">
            <path d="M404.864,154.42C404.561,153.343 404.122,152.37 403.757,151.675C403.573,151.325 403.414,151.049 403.283,150.85C403.158,150.656 403.08,150.546 403.08,150.546C403.08,150.546 403.036,150.654 402.965,150.845C402.885,151.036 402.768,151.308 402.643,151.644C402.518,151.979 402.383,152.378 402.259,152.82C402.139,153.25 402.006,153.799 401.972,154.125C401.869,154.894 401.743,155.812 401.796,156.783C401.859,157.748 402.103,158.773 402.867,159.707C403.966,159.451 404.687,158.63 404.997,157.628C405.069,157.376 405.133,157.118 405.159,156.851C405.182,156.581 405.194,156.314 405.177,156.043C405.155,155.773 405.117,155.506 405.063,155.246C405.007,154.968 404.939,154.69 404.864,154.42Z" style="fill:rgb(155,149,118);fill-rule:nonzero;"/>
        </g>
        <g transform="matrix(2.36857,2.8742e-33,0,0.748725,2890.6,680.339)">
            <path d="M417.055,145.999C417.118,145.748 417.141,145.602 417.141,145.602C417.141,145.602 416.655,145.861 415.88,146.277C415.124,146.694 414.135,147.274 413.196,147.946C412.226,148.61 411.269,149.36 410.647,150.224C410.498,150.443 410.338,150.658 410.211,150.886C410.084,151.112 409.979,151.347 409.904,151.592C409.749,152.081 409.708,152.609 409.805,153.189C410.961,153.523 412.027,153.265 412.985,152.652C413.225,152.5 413.455,152.324 413.681,152.135C413.904,151.942 414.129,151.736 414.318,151.505C414.709,151.049 415.067,150.539 415.387,150.018C416.053,148.988 416.454,147.861 416.74,147.022C416.882,146.599 416.989,146.247 417.055,145.999Z" style="fill:rgb(155,149,118);fill-rule:nonzero;"/>
        </g>
        <g transform="matrix(2.36857,2.8742e-33,0,0.748725,2890.6,680.339)">
            <path d="M407.042,152.233C407.503,151.91 407.835,151.505 408.06,151.051C408.174,150.826 408.258,150.584 408.321,150.339C408.382,150.091 408.428,149.837 408.426,149.57C408.431,148.508 408.126,147.392 407.656,146.401C407.156,145.402 406.542,144.542 406.052,143.942C405.806,143.639 405.599,143.402 405.432,143.237C405.269,143.074 405.174,142.985 405.174,142.985C405.174,142.985 405.149,143.095 405.119,143.289C405.077,143.482 405.014,143.76 404.956,144.101C404.83,144.781 404.768,145.711 404.705,146.703C404.687,147.198 404.705,147.717 404.77,148.234C404.792,148.365 404.81,148.493 404.83,148.621C404.845,148.749 404.864,148.875 404.887,149.001C404.933,149.255 404.996,149.507 405.076,149.75C405.395,150.728 405.993,151.629 407.042,152.233Z" style="fill:rgb(155,149,118);fill-rule:nonzero;"/>
        </g>
        <g transform="matrix(2.36857,2.8742e-33,0,0.748725,2890.6,680.339)">
            <path d="M414.478,138.7C414.282,138.915 414.091,139.138 413.907,139.364C413.727,139.59 413.544,139.818 413.36,140.048C413.005,140.509 412.698,140.984 412.477,141.467C412.364,141.71 412.28,141.957 412.205,142.203C412.122,142.452 412.066,142.7 412.038,142.954C411.98,143.461 412.039,143.986 412.244,144.535C413.444,144.646 414.441,144.188 415.268,143.385C415.474,143.189 415.669,142.969 415.854,142.731C416.031,142.492 416.183,142.236 416.333,141.97C416.627,141.434 416.878,140.854 417.091,140.268C417.205,139.977 417.277,139.679 417.347,139.386C417.416,139.093 417.478,138.804 417.532,138.526C417.635,137.965 417.725,137.442 417.758,136.99C417.811,136.087 417.794,135.493 417.794,135.493C417.794,135.493 417.354,135.861 416.732,136.452C416.132,137.042 415.263,137.833 414.478,138.7Z" style="fill:rgb(155,149,118);fill-rule:nonzero;"/>
        </g>
        <g transform="matrix(2.36857,2.8742e-33,0,0.748725,2890.6,680.339)">
            <path d="M410.154,142.55C410.222,142.309 410.26,142.06 410.274,141.808C410.281,141.554 410.246,141.297 410.198,141.037C410.099,140.524 409.917,140.014 409.679,139.525C409.619,139.403 409.556,139.282 409.491,139.164C409.42,139.043 409.341,138.928 409.263,138.814C409.106,138.58 408.938,138.36 408.768,138.145C408.421,137.722 408.056,137.338 407.703,137.005C407.53,136.838 407.348,136.684 407.167,136.543C406.988,136.402 406.818,136.275 406.66,136.16C406.027,135.704 405.581,135.459 405.581,135.459C405.581,135.459 405.576,135.891 405.647,136.551C405.67,136.716 405.678,136.895 405.689,137.088C405.704,137.279 405.723,137.481 405.749,137.694C405.793,138.117 405.893,138.574 405.981,139.047C406.062,139.52 406.181,140.003 406.35,140.481C406.434,140.72 406.531,140.956 406.644,141.189C406.739,141.419 406.847,141.647 406.973,141.866C407.475,142.737 408.238,143.497 409.383,143.891C409.772,143.491 410.021,143.033 410.154,142.55Z" style="fill:rgb(155,149,118);fill-rule:nonzero;"/>
        </g>
        <g transform="matrix(2.36857,2.8742e-33,0,0.748725,2890.6,680.339)">
            <path d="M412.301,132.579C412.179,133.102 412.142,133.613 412.222,134.117C412.259,134.369 412.34,134.614 412.425,134.862C412.51,135.109 412.628,135.353 412.785,135.594C413.973,135.426 414.893,134.744 415.461,133.765C415.753,133.276 415.983,132.714 416.161,132.121C416.321,131.527 416.398,130.902 416.454,130.281C416.477,129.97 416.498,129.657 416.499,129.354C416.491,129.054 416.474,128.76 416.454,128.476C416.41,127.907 416.348,127.379 416.282,126.93C416.102,126.046 415.933,125.476 415.933,125.476C415.933,125.476 415.603,125.946 415.152,126.675C414.933,127.032 414.671,127.457 414.382,127.927C414.102,128.396 413.812,128.899 413.546,129.416C413.29,129.927 413.011,130.465 412.788,130.995C412.562,131.528 412.403,132.057 412.301,132.579Z" style="fill:rgb(155,149,118);fill-rule:nonzero;"/>
        </g>
        <g transform="matrix(2.36857,2.8742e-33,0,0.748725,2890.6,680.339)">
            <path d="M410.018,132.425C409.802,131.955 409.48,131.514 409.123,131.106C408.945,130.904 408.754,130.709 408.555,130.526C408.358,130.342 408.128,130.176 407.91,130.016C407.017,129.38 406.118,128.925 405.372,128.658C404.643,128.383 404.151,128.265 404.151,128.265C404.151,128.265 404.253,128.678 404.491,129.288C404.596,129.595 404.711,129.961 404.875,130.346C404.953,130.539 405.042,130.739 405.14,130.943C405.236,131.147 405.317,131.358 405.423,131.569C405.622,131.99 405.87,132.418 406.153,132.828C406.409,133.241 406.713,133.635 407.072,133.989C407.813,134.69 408.68,135.244 409.885,135.357C410.035,135.12 410.149,134.877 410.229,134.633C410.308,134.384 410.326,134.138 410.33,133.888C410.331,133.393 410.215,132.898 410.018,132.425Z" style="fill:rgb(155,149,118);fill-rule:nonzero;"/>
        </g>
        <g transform="matrix(2.36857,2.8742e-33,0,0.748725,2890.6,680.339)">
            <path d="M411.66,116.371C411.66,116.371 411.462,116.893 411.182,117.71C410.902,118.53 410.587,119.599 410.292,120.739C410.149,121.308 410.05,121.877 409.965,122.444C409.876,123.015 409.837,123.57 409.878,124.095C409.904,124.353 409.923,124.616 409.973,124.864C410.023,125.116 410.096,125.357 410.197,125.589C410.296,125.817 410.424,126.039 410.584,126.25C410.731,126.462 410.905,126.667 411.118,126.86C411.674,126.625 412.124,126.289 412.481,125.872C412.844,125.451 413.068,124.964 413.237,124.417C413.318,124.145 413.38,123.86 413.424,123.565C413.468,123.27 413.499,122.964 413.493,122.664C413.491,122.058 413.428,121.432 413.329,120.822C413.088,119.621 412.703,118.478 412.323,117.681C412.142,117.279 411.978,116.947 411.862,116.717C411.737,116.495 411.66,116.371 411.66,116.371Z" style="fill:rgb(155,149,118);fill-rule:nonzero;"/>
        </g>
        <g transform="matrix(2.36857,2.8742e-33,0,0.748725,2890.6,680.339)">
            <path d="M408.08,124.853C407.966,124.631 407.836,124.416 407.663,124.223C407.328,123.828 406.922,123.48 406.48,123.176C406.032,122.875 405.518,122.636 405.021,122.436C404.77,122.336 404.521,122.247 404.276,122.171C404.031,122.092 403.774,122.03 403.536,121.977C403.051,121.865 402.607,121.795 402.226,121.747C401.844,121.699 401.532,121.675 401.302,121.667C401.074,121.656 400.944,121.658 400.944,121.658C400.944,121.658 400.999,121.751 401.101,121.914C401.2,122.077 401.334,122.312 401.516,122.585C401.608,122.723 401.709,122.868 401.822,123.026C401.879,123.1 401.937,123.181 401.998,123.261C402.053,123.343 402.112,123.426 402.172,123.513C402.413,123.854 402.698,124.212 403.019,124.564C403.314,124.921 403.651,125.275 404.026,125.598C404.121,125.681 404.22,125.757 404.315,125.837C404.408,125.915 404.502,125.991 404.601,126.067C404.795,126.215 405.002,126.352 405.218,126.475C405.649,126.723 406.139,126.914 406.64,127.027C407.143,127.136 407.693,127.166 408.287,127.064C408.37,126.801 408.42,126.538 408.433,126.28C408.433,126.03 408.402,125.781 408.341,125.544C408.28,125.305 408.191,125.073 408.08,124.853Z" style="fill:rgb(155,149,118);fill-rule:nonzero;"/>
        </g>
        <g transform="matrix(2.36857,2.8742e-33,0,0.748725,2890.6,680.339)">
            <path d="M407.327,118.889C408.288,118.166 408.733,117.154 408.805,116.022C408.831,115.462 408.77,114.873 408.647,114.282C408.517,113.694 408.309,113.12 408.077,112.557C407.842,111.999 407.55,111.485 407.274,111.005C406.997,110.527 406.693,110.119 406.438,109.767C406.184,109.412 405.95,109.139 405.783,108.948C405.616,108.761 405.522,108.655 405.522,108.655C405.522,108.655 405.428,109.213 405.34,110.049C405.29,110.473 405.239,110.968 405.201,111.5C405.18,111.763 405.164,112.038 405.152,112.317C405.138,112.599 405.122,112.89 405.118,113.179C405.106,114.33 405.157,115.52 405.466,116.519C405.61,117.027 405.824,117.486 406.134,117.881C406.427,118.287 406.812,118.628 407.327,118.889Z" style="fill:rgb(155,149,118);fill-rule:nonzero;"/>
        </g>
        <g transform="matrix(2.36857,2.8742e-33,0,0.748725,2890.6,680.339)">
            <path d="M403.377,116.88C402.552,116.267 401.47,115.902 400.395,115.744C399.866,115.657 399.332,115.627 398.836,115.624C398.342,115.622 397.894,115.642 397.507,115.677C396.728,115.757 396.228,115.865 396.228,115.865C396.228,115.865 396.298,115.946 396.433,116.087C396.566,116.228 396.768,116.417 397.001,116.654C397.237,116.891 397.535,117.151 397.855,117.432C398.171,117.716 398.539,118.003 398.926,118.283C399.304,118.568 399.725,118.837 400.166,119.071C400.595,119.312 401.055,119.514 401.542,119.649C402.5,119.929 403.549,119.971 404.662,119.484C404.688,118.936 404.576,118.435 404.352,117.994C404.118,117.568 403.778,117.193 403.377,116.88Z" style="fill:rgb(155,149,118);fill-rule:nonzero;"/>
        </g>
        <g transform="matrix(0.434943,5.27792e-34,0,0.137489,-40884.3,-4972.72)">
            <path d="M102701,41798.9C102701,41797.8 102702,41797 102704,41797C102705,41797 102706,41797.8 102706,41798.9C102710,41810.3 102716,41830.2 102719,41837.7C102719,41839.5 102721,41840.7 102723,41840.7C102731,41840.7 102752,41840.7 102764,41840.7C102765,41840.7 102766,41841.4 102766,41842.6C102767,41843.7 102766,41845 102765,41845.7C102756,41852.7 102739,41865 102732,41869.7C102731,41870.7 102730,41872.6 102731,41874.4C102733,41881.9 102740,41901.8 102743,41913.2C102744,41914.3 102743,41915.6 102742,41916.3C102741,41917 102740,41917 102739,41916.3C102729,41909.3 102712,41896.9 102706,41892.3C102705,41891.2 102703,41891.2 102701,41892.3C102695,41896.9 102678,41909.3 102668,41916.3C102667,41917 102666,41917 102665,41916.3C102664,41915.6 102663,41914.3 102664,41913.2C102667,41901.8 102674,41881.9 102676,41874.4C102677,41872.6 102676,41870.7 102675,41869.7C102668,41865 102651,41852.7 102642,41845.7C102641,41845 102640,41843.7 102641,41842.6C102641,41841.4 102642,41840.7 102643,41840.7C102655,41840.7 102676,41840.7 102684,41840.7C102686,41840.7 102688,41839.5 102688,41837.7C102691,41830.2 102697,41810.3 102701,41798.9Z" style="fill:none;stroke:rgb(155,149,118);stroke-width:10.25px;"/>
        </g>
    </g>
</svg>
