<?xml version="1.0" encoding="UTF-8" standalone="no"?>
<!DOCTYPE svg PUBLIC "-//W3C//DTD SVG 1.1//EN" "http://www.w3.org/Graphics/SVG/1.1/DTD/svg11.dtd">
<svg width="100%" height="100%" viewBox="0 0 78 49" version="1.1" xmlns="http://www.w3.org/2000/svg" xmlns:xlink="http://www.w3.org/1999/xlink" xml:space="preserve" xmlns:serif="http://www.serif.com/" style="fill-rule:evenodd;clip-rule:evenodd;stroke-linejoin:round;stroke-miterlimit:2;">
    <g transform="matrix(0.173515,0,0,0.173515,-5.55247,-20.3591)">
        <path d="M464.823,135.281C454.87,129.216 442.37,129.016 432.229,134.76L352,192.514L352,170.667C351.966,141.422 327.911,117.368 298.667,117.333L85.333,117.333C56.089,117.368 32.034,141.422 32,170.667L32,341.333C32.034,370.578 56.089,394.632 85.333,394.667L298.667,394.667C327.911,394.632 351.966,370.578 352,341.333L352,319.45L433.698,378.094C438.138,380.31 443.033,381.465 447.995,381.465C465.549,381.465 479.995,367.023 480,349.469L480,162.5C480.036,151.413 474.274,141.078 464.823,135.281ZM330.667,341.333C330.648,358.881 316.214,373.314 298.667,373.333L85.333,373.333C67.786,373.314 53.352,358.881 53.333,341.333L53.333,170.667C53.352,153.119 67.786,138.686 85.333,138.667L298.667,138.667C316.214,138.686 330.648,153.119 330.667,170.667L330.667,341.333ZM458.667,349.469C458.561,355.443 453.617,360.299 447.642,360.299C446.644,360.299 445.65,360.163 444.688,359.896L352,293.198L352,218.792L443.229,152.958C444.709,152.219 446.342,151.834 447.996,151.834C453.848,151.834 458.664,156.648 458.667,162.5L458.667,349.469Z" style="fill:white;fill-rule:nonzero;"/>
    </g>
</svg>
