<?xml version="1.0" encoding="UTF-8" standalone="no"?>
<!DOCTYPE svg PUBLIC "-//W3C//DTD SVG 1.1//EN" "http://www.w3.org/Graphics/SVG/1.1/DTD/svg11.dtd">
<svg width="100%" height="100%" viewBox="0 0 56 56" version="1.1" xmlns="http://www.w3.org/2000/svg" xmlns:xlink="http://www.w3.org/1999/xlink" xml:space="preserve" xmlns:serif="http://www.serif.com/" style="fill-rule:evenodd;clip-rule:evenodd;stroke-linejoin:round;stroke-miterlimit:2;">
    <g transform="matrix(0.108825,0,0,0.108825,0,0)">
        <path d="M435.922,74.352C387.824,26.434 323.84,0.027 255.742,0C187.797,0 123.711,26.383 75.297,74.289C26.797,122.277 0.063,186.051 0,253.629L0,253.754C0.008,294.656 10.754,335.918 31.152,373.582L0.699,512L140.711,480.152C176.172,498.023 215.738,507.445 255.645,507.461L255.746,507.461C323.68,507.461 387.766,481.074 436.188,433.164C484.73,385.137 511.477,321.445 511.508,253.824C511.527,186.68 484.688,122.941 435.922,74.352ZM255.742,467.5L255.652,467.5C219.82,467.484 184.316,458.488 152.984,441.477L146.363,437.883L53.262,459.059L73.484,367.152L69.586,360.43C50.203,327.004 39.961,290.105 39.961,253.711C40.035,135.91 136.824,39.961 255.734,39.961C313.18,39.984 367.156,62.254 407.719,102.66C448.895,143.691 471.563,197.371 471.543,253.813C471.496,371.641 374.688,467.5 255.742,467.5Z" style="fill:white;fill-rule:nonzero;"/>
    </g>
    <g transform="matrix(0.108825,0,0,0.108825,0,0)">
        <path d="M186.152,141.863L174.941,141.863C171.039,141.863 164.703,143.324 159.344,149.156C153.98,154.992 138.867,169.098 138.867,197.785C138.867,226.473 159.832,254.191 162.754,258.086C165.68,261.977 203.223,322.727 262.684,346.098C312.102,365.52 322.16,361.656 332.883,360.684C343.609,359.715 367.496,346.582 372.371,332.969C377.246,319.355 377.246,307.684 375.785,305.246C374.32,302.816 370.418,301.359 364.57,298.445C358.719,295.527 330.047,281.184 324.684,279.234C319.32,277.293 315.422,276.32 311.52,282.16C307.617,287.988 296.129,301.473 292.715,305.363C289.305,309.258 285.891,309.746 280.039,306.828C274.187,303.902 255.539,297.637 233.191,277.777C215.797,262.32 203.727,242.609 200.312,236.773C196.902,230.941 199.949,227.785 202.883,224.875C205.512,222.266 209.062,218.695 211.988,215.293C214.91,211.887 215.742,209.457 217.695,205.566C219.645,201.676 218.668,198.27 217.207,195.355C215.742,192.437 204.516,163.605 199.312,152.074L199.316,152.074C194.934,142.363 190.32,142.035 186.152,141.863Z" style="fill:white;fill-rule:nonzero;"/>
    </g>
</svg>
